<?xml version="1.0" encoding="UTF-8"?>
<!DOCTYPE svg PUBLIC "-//W3C//DTD SVG 1.1//EN" "http://www.w3.org/Graphics/SVG/1.1/DTD/svg11.dtd">
<!-- Creator: CorelDRAW 2018 (64 Bit Versão de avaliação) -->
<svg xmlns="http://www.w3.org/2000/svg" xml:space="preserve" width="48px" height="48px" version="1.1" style="shape-rendering:geometricPrecision; text-rendering:geometricPrecision; image-rendering:optimizeQuality; fill-rule:evenodd; clip-rule:evenodd"
viewBox="0 0 48 48"
 xmlns:xlink="http://www.w3.org/1999/xlink">
 <defs>
  <style type="text/css">
   <![CDATA[
    .str1 {stroke:black;stroke-width:1.05;stroke-miterlimit:22.9256}
    .str0 {stroke:black;stroke-width:3.67;stroke-miterlimit:22.9256}
    .str2 {stroke:black;stroke-width:0.79;stroke-miterlimit:22.9256}
    .str3 {stroke:black;stroke-width:1.31;stroke-miterlimit:22.9256}
    .str4 {stroke:black;stroke-width:1.05;stroke-miterlimit:22.9256}
    .fil1 {fill:none}
    .fil0 {fill:white}
   ]]>
  </style>
 </defs>
 <g id="Camada_x0020_1">
  <metadata id="CorelCorpID_0Corel-Layer"/>
  <rect class="fil0 str0" x="1.83" y="1.83" width="44.33" height="44.33" rx="9.9" ry="10.4"/>
  <g id="_2123626774064">
   <g>
    <ellipse class="fil1 str1" transform="matrix(0.30788 0.13006 -0.126853 0.300289 17.204 12.3918)" rx="5.49" ry="5.62"/>
    <path class="fil1 str2" d="M18.9 11.66l0.59 -2.66c-0.23,-0.31 -0.58,-0.46 -1.01,-0.43l-1.63 2.23"/>
    <path class="fil1 str2" d="M15.79 13.21l-0.59 2.66c0.23,0.31 0.57,0.46 1.01,0.43l1.63 -2.24"/>
    <path class="fil1 str2" d="M17.89 10.78l-1.46 -2.29c-0.38,-0.06 -0.73,0.08 -1.02,0.41l0.43 2.73"/>
    <path class="fil1 str2" d="M16.79 14.08l1.47 2.3c0.38,0.06 0.73,-0.08 1.01,-0.41l-0.43 -2.73"/>
    <path class="fil1 str2" d="M15.49 11.98l-2.15 1.68c-0.01,0.38 0.2,0.73 0.55,0.98l2.68 -0.69"/>
    <path class="fil1 str2" d="M18.91 13.01l2.3 -1.46c0.05,-0.39 -0.09,-0.74 -0.41,-1.02l-2.74 0.43"/>
    <path class="fil1 str2" d="M16.43 10.93l-2.66 -0.59c-0.31,0.23 -0.46,0.57 -0.43,1.01l2.24 1.62"/>
    <path class="fil1 str2" d="M17.98 14.04l2.66 0.59c0.31,-0.23 0.46,-0.58 0.43,-1.01l-2.23 -1.63"/>
   </g>
   <path class="fil1 str2" d="M24.84 35.05l1.93 -0.36c0.14,-0.24 0.14,-0.51 0,-0.79l-1.94 -0.45m-1.89 -0.03l-1.92 0.35c-0.14,0.24 -0.15,0.51 0,0.79l1.93 0.46m1.83 -1.81l-0.35 -1.92c-0.24,-0.14 -0.51,-0.15 -0.79,0l-0.45 1.93m1.98 0.89l1.11 -1.62c-0.07,-0.27 -0.26,-0.46 -0.56,-0.55l-1.68 1.04m-0.17 -0.06l-1.61 -1.12c-0.27,0.07 -0.46,0.26 -0.56,0.56l1.05 1.69m1.32 1.36l1.61 1.11c0.27,-0.07 0.46,-0.26 0.56,-0.56l-1.05 -1.68m-2.03 0.83l0.35 1.93c0.24,0.14 0.51,0.14 0.79,0l0.45 -1.94m-2.07 -0.8l-1.12 1.61c0.07,0.27 0.29,0.47 0.59,0.56l1.69 -1.05m0.03 -2.56c0.72,0 1.32,0.59 1.32,1.31 0,0.73 -0.6,1.32 -1.32,1.32 -0.73,0 -1.32,-0.59 -1.32,-1.32 0,-0.72 0.59,-1.31 1.32,-1.31z"/>
   <g>
    <ellipse class="fil1 str1" transform="matrix(0.30788 0.13006 -0.126853 0.300289 31.456 12.7798)" rx="5.49" ry="5.62"/>
    <path class="fil1 str2" d="M33.15 12.04l0.59 -2.66c-0.23,-0.3 -0.58,-0.46 -1.01,-0.42l-1.63 2.23"/>
    <path class="fil1 str2" d="M30.04 13.6l-0.59 2.66c0.23,0.31 0.58,0.46 1.01,0.43l1.63 -2.24"/>
    <path class="fil1 str2" d="M32.14 11.17l-1.46 -2.3c-0.38,-0.05 -0.73,0.09 -1.02,0.42l0.43 2.73"/>
    <path class="fil1 str2" d="M31.04 14.47l1.47 2.3c0.38,0.06 0.73,-0.08 1.02,-0.41l-0.43 -2.73"/>
    <path class="fil1 str2" d="M29.74 12.37l-2.14 1.68c-0.02,0.38 0.19,0.73 0.55,0.98l2.67 -0.69"/>
    <path class="fil1 str2" d="M33.16 13.4l2.3 -1.47c0.05,-0.38 -0.08,-0.73 -0.41,-1.01l-2.73 0.43"/>
    <path class="fil1 str2" d="M30.68 11.31l-2.66 -0.59c-0.31,0.24 -0.46,0.58 -0.43,1.01l2.24 1.63"/>
    <path class="fil1 str2" d="M32.24 14.43l2.66 0.59c0.3,-0.24 0.46,-0.58 0.42,-1.02l-2.23 -1.62"/>
   </g>
   <path class="fil1 str2" d="M25.27 16.57l1.93 -0.35c0.14,-0.24 0.14,-0.52 0,-0.79l-1.94 -0.46m-1.89 -0.03l-1.93 0.36c-0.14,0.24 -0.14,0.51 0,0.79l1.94 0.45m1.83 -1.8l-0.35 -1.93c-0.24,-0.14 -0.52,-0.14 -0.79,0l-0.46 1.94m1.99 0.88l1.11 -1.61c-0.07,-0.27 -0.26,-0.47 -0.56,-0.56l-1.69 1.05m-0.16 -0.07l-1.61 -1.11c-0.27,0.07 -0.47,0.26 -0.56,0.56l1.05 1.68m1.31 1.36l1.62 1.12c0.27,-0.07 0.46,-0.26 0.55,-0.56l-1.04 -1.69m-2.04 0.84l0.36 1.92c0.24,0.14 0.51,0.15 0.79,0l0.45 -1.93m-2.08 -0.81l-1.11 1.62c0.07,0.27 0.29,0.46 0.59,0.55l1.69 -1.04m0.02 -2.57c0.73,0 1.32,0.59 1.32,1.32 0,0.73 -0.59,1.32 -1.32,1.32 -0.73,0 -1.32,-0.59 -1.32,-1.32 0,-0.73 0.59,-1.32 1.32,-1.32z"/>
   <rect class="fil1 str3" x="10.84" y="18.34" width="4.55" height="3"/>
   <g>
    <line class="fil1 str4" x1="15.39" y1="19.74" x2="33.11" y2= "20.01" />
   </g>
   <rect class="fil1 str3" x="10.54" y="36.34" width="4.55" height="3"/>
   <g>
    <line class="fil1 str4" x1="15.13" y1="37.84" x2="32.85" y2= "38.12" />
   </g>
   <rect class="fil1 str1" x="15.64" y="25.35" width="5.55" height="5.55"/>
   <g>
    <line class="fil1 str4" x1="35.13" y1="21.52" x2="35.04" y2= "36.22" />
   </g>
   <g>
    <line class="fil1 str4" x1="12.9" y1="21.32" x2="12.81" y2= "35.97" />
   </g>
   <g>
    <line class="fil1 str4" x1="24.04" y1="19.87" x2="23.95" y2= "30.99" />
   </g>
   <g>
    <line class="fil1 str4" x1="18.43" y1="19.78" x2="18.35" y2= "25.35" />
   </g>
   <g>
    <line class="fil1 str4" x1="18.38" y1="31.13" x2="18.42" y2= "37.5" />
   </g>
   <rect class="fil1 str3" x="32.91" y="36.52" width="4.55" height="3"/>
   <rect class="fil1 str3" x="32.85" y="18.51" width="4.55" height="3"/>
   <g>
    <line class="fil1 str4" x1="21.18" y1="28.44" x2="26.6" y2= "28.43" />
   </g>
   <rect class="fil1 str1" x="26.6" y="25.36" width="5.55" height="5.55"/>
   <g>
    <line class="fil1 str4" x1="32.15" y1="28.44" x2="35.1" y2= "28.43" />
   </g>
   <g>
    <line class="fil1 str4" x1="29.37" y1="25.55" x2="29.29" y2= "19.86" />
   </g>
   <g>
    <line class="fil1 str4" x1="29.63" y1="30.85" x2="29.65" y2= "37.58" />
   </g>
   <g>
    <line class="fil1 str4" x1="12.93" y1="28.44" x2="15.64" y2= "28.43" />
   </g>
  </g>
 </g>
</svg>
