<?xml version="1.0" encoding="UTF-8"?>
<!DOCTYPE svg PUBLIC "-//W3C//DTD SVG 1.1//EN" "http://www.w3.org/Graphics/SVG/1.1/DTD/svg11.dtd">
<!-- Creator: CorelDRAW 2018 (64 Bit Versão de avaliação) -->
<svg xmlns="http://www.w3.org/2000/svg" xml:space="preserve" width="64px" height="64px" version="1.1" style="shape-rendering:geometricPrecision; text-rendering:geometricPrecision; image-rendering:optimizeQuality; fill-rule:evenodd; clip-rule:evenodd"
viewBox="0 0 64 64"
 xmlns:xlink="http://www.w3.org/1999/xlink">
 <defs>
  <style type="text/css">
   <![CDATA[
    .str4 {stroke:#373435;stroke-width:0.76;stroke-miterlimit:22.9256}
    .str3 {stroke:#373435;stroke-width:1.51;stroke-miterlimit:22.9256}
    .str2 {stroke:#373435;stroke-width:1.13;stroke-miterlimit:22.9256}
    .str5 {stroke:#373435;stroke-width:0.76;stroke-miterlimit:22.9256}
    .str1 {stroke:#373435;stroke-width:1.51;stroke-miterlimit:22.9256}
    .str6 {stroke:#373435;stroke-width:1.13;stroke-miterlimit:22.9256}
    .str0 {stroke:#373435;stroke-width:0.15;stroke-miterlimit:22.9256}
    .fil0 {fill:none}
   ]]>
  </style>
 </defs>
 <g id="Camada_x0020_1">
  <metadata id="CorelCorpID_0Corel-Layer"/>
  <rect class="fil0" width="64" height="64"/>
  <g id="_2558314955488">
   <line class="fil0 str0" x1="32" y1="0" x2="32" y2= "0" />
  </g>
  <g id="_2558314955424">
   <line class="fil0 str0" x1="32" y1="0" x2="32" y2= "0" />
  </g>
 </g>
 <g id="Camada_x0020_1_0">
  <metadata id="CorelCorpID_1Corel-Layer"/>
  <g id="_2558314958048">
   <line class="fil0 str1" x1="14.99" y1="22.15" x2="49.01" y2= "22.67" />
  </g>
  <rect class="fil0 str2" x="15.96" y="32.97" width="10.66" height="10.66"/>
  <g id="_2558314957216">
   <line class="fil0 str1" x1="53.38" y1="25.62" x2="53.22" y2= "52.89" />
  </g>
  <g id="_2558314958464">
   <line class="fil0 str1" x1="10.7" y1="25.23" x2="10.54" y2= "52.56" />
  </g>
  <g id="_2558314958976">
   <line class="fil0 str1" x1="32.09" y1="20.94" x2="31.93" y2= "55.99" />
  </g>
  <g id="_2558314961632">
   <line class="fil0 str1" x1="21.34" y1="22.28" x2="21.18" y2= "32.97" />
  </g>
  <g id="_2558314962496">
   <line class="fil0 str1" x1="21.24" y1="44.07" x2="21.31" y2= "50.04" />
  </g>
  <rect class="fil0 str3" x="6.26" y="19.46" width="8.74" height="5.77"/>
  <rect class="fil0 str3" x="49.01" y="19.85" width="8.74" height="5.77"/>
  <g id="_2558314962880">
   <ellipse class="fil0 str3" transform="matrix(0.409414 0.172951 -0.168687 0.399319 20.5738 10.056)" rx="7.92" ry="8.12"/>
   <path class="fil0 str4" d="M23.83 8.64l1.13 -5.1c-0.45,-0.6 -1.11,-0.88 -1.94,-0.82l-3.13 4.29"/>
   <path class="fil0 str4" d="M17.85 11.63l-1.13 5.11c0.45,0.59 1.11,0.88 1.94,0.82l3.13 -4.29"/>
   <path class="fil0 str4" d="M21.9 6.97l-2.81 -4.41c-0.74,-0.11 -1.41,0.16 -1.96,0.79l0.83 5.24"/>
   <path class="fil0 str4" d="M19.78 13.31l2.81 4.41c0.74,0.1 1.41,-0.16 1.96,-0.8l-0.83 -5.24"/>
   <path class="fil0 str4" d="M17.51 9.13l-4.41 2.81c-0.1,0.74 0.24,1.44 0.87,1.98l5.24 -0.82"/>
   <path class="fil0 str4" d="M23.85 11.24l4.41 -2.81c0.11,-0.73 -0.16,-1.41 -0.79,-1.95l-5.25 0.82"/>
   <path class="fil0 str4" d="M19.08 7.24l-5.1 -1.13c-0.6,0.45 -0.89,1.11 -0.82,1.94l4.29 3.13"/>
   <path class="fil0 str4" d="M22.07 13.21l5.11 1.14c0.59,-0.45 0.88,-1.11 0.82,-1.94l-4.29 -3.13"/>
  </g>
  <g id="_2558314965728">
   <line class="fil0 str1" x1="26.61" y1="38.9" x2="37.01" y2= "38.88" />
  </g>
  <rect class="fil0 str2" x="37.01" y="32.99" width="10.66" height="10.66"/>
  <g id="_2558314968640">
   <line class="fil0 str1" x1="47.66" y1="38.91" x2="53.34" y2= "38.89" />
  </g>
  <g id="_2558314968128">
   <line class="fil0 str1" x1="42.34" y1="33.36" x2="42.18" y2= "22.42" />
  </g>
  <g id="_2558314970368">
   <line class="fil0 str1" x1="42.83" y1="43.53" x2="42.86" y2= "49.81" />
  </g>
  <g id="_2558314970528">
   <circle class="fil0 str3" cx="42.57" cy="55.54" r="2.53"/>
   <path class="fil0 str4" d="M44.33 53.7l-0.68 -3.7c-0.46,-0.27 -0.98,-0.27 -1.51,0l-0.87 3.72"/>
   <path class="fil0 str4" d="M41.21 57.35l0.68 3.7c0.46,0.27 0.98,0.27 1.52,0l0.87 -3.72"/>
   <path class="fil0 str4" d="M42.59 53.13l-3.1 -2.13c-0.52,0.13 -0.89,0.5 -1.07,1.07l2.01 3.24"/>
   <path class="fil0 str4" d="M42.96 57.92l3.09 2.13c0.52,-0.13 0.89,-0.5 1.08,-1.07l-2.02 -3.24"/>
   <path class="fil0 str4" d="M40.29 55.79l-2.14 3.09c0.14,0.52 0.56,0.89 1.13,1.07l3.24 -2.01"/>
   <path class="fil0 str4" d="M45.07 55.41l2.14 -3.09c-0.14,-0.52 -0.5,-0.89 -1.07,-1.07l-3.24 2.01"/>
   <path class="fil0 str4" d="M40.8 54.1l-3.7 0.68c-0.27,0.46 -0.27,0.98 0,1.51l3.72 0.87"/>
   <path class="fil0 str4" d="M44.45 57.22l3.7 -0.68c0.26,-0.46 0.27,-0.98 0,-1.51l-3.72 -0.87"/>
  </g>
  <rect class="fil0 str2" x="50.09" y="52.89" width="6.24" height="5.77"/>
  <g id="_2558314974272">
   <line class="fil0 str5" x1="48.56" y1="55.78" x2="50.09" y2= "55.76" />
  </g>
  <rect class="fil0 str2" x="7.49" y="52.56" width="6.24" height="5.77"/>
  <g id="_2558314975136">
   <line class="fil0 str5" x1="14.19" y1="55.77" x2="15.72" y2= "55.75" />
  </g>
  <g id="_2558314975360">
   <circle class="fil0 str3" cx="21.07" cy="55.76" r="2.53"/>
   <path class="fil0 str4" d="M22.83 53.91l-0.68 -3.7c-0.46,-0.26 -0.98,-0.27 -1.52,0l-0.87 3.72"/>
   <path class="fil0 str4" d="M19.71 57.56l0.67 3.7c0.47,0.27 0.99,0.27 1.52,0l0.87 -3.72"/>
   <path class="fil0 str4" d="M21.08 53.34l-3.1 -2.13c-0.51,0.13 -0.88,0.5 -1.07,1.07l2.01 3.24"/>
   <path class="fil0 str4" d="M21.45 58.13l3.1 2.14c0.51,-0.14 0.89,-0.5 1.07,-1.07l-2.01 -3.25"/>
   <path class="fil0 str4" d="M18.78 56l-2.14 3.1c0.14,0.51 0.56,0.88 1.13,1.07l3.25 -2.02"/>
   <path class="fil0 str4" d="M23.57 55.63l2.13 -3.1c-0.13,-0.52 -0.5,-0.89 -1.07,-1.07l-3.24 2.01"/>
   <path class="fil0 str4" d="M19.29 54.31l-3.7 0.68c-0.27,0.46 -0.27,0.98 0,1.51l3.72 0.87"/>
   <path class="fil0 str4" d="M22.94 57.43l3.7 -0.68c0.27,-0.46 0.27,-0.98 0,-1.51l-3.72 -0.87"/>
  </g>
  <g id="_2558314980736">
   <line class="fil0 str1" x1="10.76" y1="38.91" x2="15.96" y2= "38.89" />
  </g>
  <g id="_2558314979776">
   <line class="fil0 str6" x1="26.79" y1="56" x2="37.19" y2= "55.98" />
  </g>
  <g id="_2558314980512">
   <ellipse class="fil0 str3" transform="matrix(0.409414 0.172951 -0.168687 0.399319 43.7738 10.7226)" rx="7.92" ry="8.12"/>
   <path class="fil0 str4" d="M47.03 9.31l1.13 -5.11c-0.45,-0.59 -1.11,-0.88 -1.94,-0.81l-3.13 4.28"/>
   <path class="fil0 str4" d="M41.05 12.3l-1.13 5.1c0.45,0.6 1.11,0.89 1.94,0.82l3.13 -4.29"/>
   <path class="fil0 str4" d="M45.1 7.64l-2.81 -4.41c-0.74,-0.11 -1.41,0.16 -1.96,0.79l0.83 5.24"/>
   <path class="fil0 str4" d="M42.98 13.97l2.81 4.41c0.74,0.11 1.41,-0.16 1.96,-0.79l-0.83 -5.24"/>
   <path class="fil0 str4" d="M40.71 9.8l-4.41 2.81c-0.1,0.73 0.24,1.44 0.87,1.98l5.24 -0.82"/>
   <path class="fil0 str4" d="M47.05 11.91l4.41 -2.81c0.11,-0.74 -0.16,-1.41 -0.79,-1.95l-5.25 0.82"/>
   <path class="fil0 str4" d="M42.28 7.91l-5.1 -1.13c-0.6,0.44 -0.89,1.1 -0.82,1.94l4.29 3.12"/>
   <path class="fil0 str4" d="M45.27 13.88l5.11 1.13c0.59,-0.44 0.88,-1.1 0.82,-1.94l-4.29 -3.12"/>
  </g>
  <g id="_2558314984896">
   <circle class="fil0 str3" cx="31.9" cy="15.27" r="2.53"/>
   <path class="fil0 str4" d="M33.66 13.42l-0.68 -3.7c-0.46,-0.27 -0.98,-0.27 -1.51,0l-0.87 3.72"/>
   <path class="fil0 str4" d="M30.54 17.07l0.68 3.7c0.46,0.27 0.98,0.27 1.51,0l0.87 -3.72"/>
   <path class="fil0 str4" d="M31.91 12.85l-3.09 -2.13c-0.52,0.13 -0.89,0.5 -1.07,1.07l2.01 3.24"/>
   <path class="fil0 str4" d="M32.29 17.64l3.09 2.14c0.52,-0.14 0.89,-0.5 1.07,-1.08l-2.01 -3.24"/>
   <path class="fil0 str4" d="M29.61 15.51l-2.13 3.1c0.14,0.51 0.56,0.88 1.13,1.07l3.24 -2.02"/>
   <path class="fil0 str4" d="M34.4 15.14l2.14 -3.1c-0.14,-0.52 -0.5,-0.89 -1.07,-1.07l-3.25 2.01"/>
   <path class="fil0 str4" d="M30.13 13.82l-3.7 0.68c-0.27,0.46 -0.28,0.98 0,1.51l3.71 0.87"/>
   <path class="fil0 str4" d="M33.77 16.94l3.7 -0.68c0.27,-0.46 0.28,-0.98 0,-1.51l-3.71 -0.87"/>
  </g>
 </g>
</svg>
