<?xml version="1.0" encoding="UTF-8"?>
<!DOCTYPE svg PUBLIC "-//W3C//DTD SVG 1.1//EN" "http://www.w3.org/Graphics/SVG/1.1/DTD/svg11.dtd">
<!-- Creator: CorelDRAW 2018 (64 Bit Versão de avaliação) -->
<svg xmlns="http://www.w3.org/2000/svg" xml:space="preserve" width="96px" height="96px" version="1.1" style="shape-rendering:geometricPrecision; text-rendering:geometricPrecision; image-rendering:optimizeQuality; fill-rule:evenodd; clip-rule:evenodd"
viewBox="0 0 96 96.1"
 xmlns:xlink="http://www.w3.org/1999/xlink">
 <defs>
  <style type="text/css">
   <![CDATA[
    .str2 {stroke:black;stroke-width:2.19;stroke-miterlimit:22.9256}
    .str0 {stroke:black;stroke-width:3.28;stroke-miterlimit:22.9256}
    .str5 {stroke:black;stroke-width:1.64;stroke-miterlimit:22.9256}
    .str4 {stroke:black;stroke-width:2.73;stroke-miterlimit:22.9256}
    .str1 {stroke:black;stroke-width:2.19;stroke-miterlimit:22.9256}
    .str3 {stroke:black;stroke-width:1.64;stroke-miterlimit:22.9256}
    .fil0 {fill:none}
   ]]>
  </style>
 </defs>
 <g id="Camada_x0020_1">
  <metadata id="CorelCorpID_0Corel-Layer"/>
  <g id="_2123576231376">
   <rect class="fil0 str0" x="1.75" y="1.85" width="92.61" height="92.61" rx="20.67" ry="21.73"/>
   <g>
    <line class="fil0 str1" x1="23.38" y1="34.14" x2="72.61" y2= "34.89" />
   </g>
   <rect class="fil0 str2" x="24.79" y="49.81" width="15.42" height="15.43"/>
   <g>
    <line class="fil0 str3" x1="78.93" y1="39.16" x2="78.7" y2= "78.63" />
   </g>
   <g>
    <line class="fil0 str3" x1="17.18" y1="38.6" x2="16.95" y2= "78.14" />
   </g>
   <g>
    <line class="fil0 str3" x1="48.13" y1="32.39" x2="47.89" y2= "83.11" />
   </g>
   <g>
    <line class="fil0 str1" x1="32.56" y1="34.33" x2="32.33" y2= "49.81" />
   </g>
   <g>
    <line class="fil0 str3" x1="32.42" y1="65.87" x2="32.53" y2= "74.51" />
   </g>
   <rect class="fil0 str4" x="10.74" y="30.25" width="12.64" height="8.34"/>
   <rect class="fil0 str4" x="72.61" y="30.81" width="12.64" height="8.34"/>
   <g>
    <ellipse class="fil0 str2" transform="matrix(0.409414 0.172951 -0.168687 0.399319 31.4617 16.6437)" rx="11.46" ry="11.75"/>
    <path class="fil0 str2" d="M36.17 14.6l1.64 -7.39c-0.65,-0.86 -1.61,-1.27 -2.81,-1.18l-4.52 6.2"/>
    <path class="fil0 str2" d="M27.53 18.92l-1.64 7.39c0.64,0.86 1.6,1.28 2.8,1.19l4.53 -6.21"/>
    <path class="fil0 str2" d="M33.38 12.18l-4.07 -6.39c-1.06,-0.15 -2.04,0.24 -2.82,1.15l1.19 7.59"/>
    <path class="fil0 str2" d="M30.32 21.35l4.07 6.38c1.06,0.15 2.03,-0.23 2.82,-1.15l-1.19 -7.58"/>
    <path class="fil0 str2" d="M27.03 15.3l-6.38 4.07c-0.15,1.06 0.34,2.08 1.25,2.87l7.59 -1.19"/>
    <path class="fil0 str2" d="M36.2 18.36l6.38 -4.07c0.16,-1.06 -0.23,-2.03 -1.14,-2.82l-7.59 1.19"/>
    <path class="fil0 str2" d="M29.3 12.57l-7.38 -1.64c-0.86,0.65 -1.28,1.61 -1.19,2.81l6.21 4.52"/>
    <path class="fil0 str2" d="M33.63 21.21l7.39 1.64c0.86,-0.64 1.27,-1.6 1.18,-2.8l-6.21 -4.53"/>
   </g>
   <g>
    <line class="fil0 str1" x1="40.2" y1="58.38" x2="55.24" y2= "58.35" />
   </g>
   <rect class="fil0 str2" x="55.24" y="49.82" width="15.42" height="15.43"/>
   <g>
    <line class="fil0 str1" x1="70.66" y1="58.4" x2="78.87" y2= "58.37" />
   </g>
   <g>
    <line class="fil0 str1" x1="62.95" y1="50.36" x2="62.72" y2= "34.54" />
   </g>
   <g>
    <line class="fil0 str3" x1="63.67" y1="65.08" x2="63.71" y2= "74.17" />
   </g>
   <g>
    <circle class="fil0 str5" cx="63.3" cy="82.47" r="3.66"/>
    <path class="fil0 str5" d="M65.84 79.8l-0.98 -5.35c-0.67,-0.39 -1.42,-0.4 -2.19,0l-1.26 5.37"/>
    <path class="fil0 str5" d="M61.33 85.08l0.98 5.35c0.67,0.39 1.42,0.4 2.19,0l1.26 -5.38"/>
    <path class="fil0 str5" d="M63.31 78.98l-4.48 -3.09c-0.74,0.19 -1.28,0.72 -1.54,1.54l2.91 4.7"/>
    <path class="fil0 str5" d="M63.85 85.9l4.48 3.09c0.75,-0.2 1.29,-0.72 1.55,-1.55l-2.91 -4.69"/>
    <path class="fil0 str5" d="M59.99 82.82l-3.09 4.48c0.19,0.75 0.8,1.28 1.63,1.55l4.69 -2.91"/>
    <path class="fil0 str5" d="M66.91 82.28l3.09 -4.48c-0.19,-0.75 -0.72,-1.28 -1.54,-1.55l-4.7 2.91"/>
    <path class="fil0 str5" d="M60.73 80.37l-5.35 0.99c-0.39,0.66 -0.4,1.42 0,2.19l5.37 1.26"/>
    <path class="fil0 str5" d="M66.01 84.89l5.35 -0.98c0.39,-0.67 0.4,-1.42 0,-2.19l-5.38 -1.26"/>
   </g>
   <rect class="fil0 str5" x="74.17" y="78.63" width="9.02" height="8.34"/>
   <g>
    <line class="fil0 str3" x1="71.95" y1="82.81" x2="74.17" y2= "82.78" />
   </g>
   <rect class="fil0 str5" x="12.54" y="78.14" width="9.02" height="8.34"/>
   <g>
    <line class="fil0 str3" x1="21.66" y1="82.8" x2="23.88" y2= "82.77" />
   </g>
   <g>
    <circle class="fil0 str5" cx="32.17" cy="82.78" r="3.66"/>
    <path class="fil0 str5" d="M34.72 80.11l-0.98 -5.36c-0.67,-0.38 -1.42,-0.39 -2.19,0l-1.26 5.38"/>
    <path class="fil0 str5" d="M30.21 85.39l0.98 5.35c0.67,0.39 1.42,0.4 2.19,0l1.26 -5.38"/>
    <path class="fil0 str5" d="M32.19 79.28l-4.48 -3.09c-0.74,0.2 -1.28,0.73 -1.55,1.55l2.92 4.69"/>
    <path class="fil0 str5" d="M32.73 86.21l4.48 3.09c0.75,-0.2 1.29,-0.72 1.55,-1.55l-2.91 -4.69"/>
    <path class="fil0 str5" d="M28.87 83.13l-3.09 4.48c0.19,0.74 0.8,1.28 1.63,1.55l4.69 -2.92"/>
    <path class="fil0 str5" d="M35.79 82.59l3.09 -4.48c-0.19,-0.75 -0.72,-1.29 -1.55,-1.55l-4.69 2.91"/>
    <path class="fil0 str5" d="M29.61 80.68l-5.36 0.98c-0.38,0.67 -0.39,1.42 0,2.2l5.38 1.25"/>
    <path class="fil0 str5" d="M34.89 85.2l5.35 -0.98c0.39,-0.67 0.4,-1.42 0,-2.2l-5.38 -1.25"/>
   </g>
   <g>
    <line class="fil0 str1" x1="17.27" y1="58.39" x2="24.79" y2= "58.36" />
   </g>
   <g>
    <line class="fil0 str3" x1="40.46" y1="83.13" x2="55.5" y2= "83.1" />
   </g>
   <g>
    <ellipse class="fil0 str2" transform="matrix(0.409414 0.172951 -0.168687 0.399319 65.0332 17.6083)" rx="11.46" ry="11.75"/>
    <path class="fil0 str2" d="M69.74 15.57l1.64 -7.39c-0.65,-0.86 -1.6,-1.28 -2.81,-1.19l-4.52 6.21"/>
    <path class="fil0 str2" d="M61.1 19.89l-1.64 7.39c0.64,0.86 1.6,1.27 2.81,1.18l4.52 -6.2"/>
    <path class="fil0 str2" d="M66.95 13.14l-4.07 -6.38c-1.06,-0.15 -2.04,0.23 -2.82,1.15l1.19 7.58"/>
    <path class="fil0 str2" d="M63.89 22.31l4.07 6.38c1.06,0.16 2.03,-0.23 2.82,-1.14l-1.19 -7.59"/>
    <path class="fil0 str2" d="M60.6 16.27l-6.38 4.06c-0.15,1.07 0.34,2.09 1.25,2.87l7.59 -1.19"/>
    <path class="fil0 str2" d="M69.77 19.32l6.39 -4.06c0.15,-1.07 -0.23,-2.04 -1.15,-2.83l-7.59 1.19"/>
    <path class="fil0 str2" d="M62.88 13.54l-7.39 -1.64c-0.86,0.64 -1.28,1.6 -1.19,2.81l6.21 4.52"/>
    <path class="fil0 str2" d="M67.2 22.18l7.39 1.64c0.86,-0.65 1.27,-1.61 1.18,-2.81l-6.2 -4.52"/>
   </g>
   <g>
    <circle class="fil0 str5" cx="47.85" cy="24.18" r="3.66"/>
    <path class="fil0 str5" d="M50.4 21.51l-0.98 -5.35c-0.67,-0.39 -1.42,-0.39 -2.2,0l-1.25 5.38"/>
    <path class="fil0 str5" d="M45.88 26.8l0.98 5.35c0.67,0.39 1.42,0.39 2.2,0l1.25 -5.38"/>
    <path class="fil0 str5" d="M47.87 20.69l-4.48 -3.09c-0.75,0.2 -1.28,0.72 -1.55,1.55l2.91 4.69"/>
    <path class="fil0 str5" d="M48.41 27.62l4.48 3.09c0.75,-0.2 1.28,-0.72 1.55,-1.55l-2.91 -4.69"/>
    <path class="fil0 str5" d="M44.54 24.54l-3.09 4.47c0.2,0.75 0.81,1.29 1.64,1.56l4.69 -2.92"/>
    <path class="fil0 str5" d="M51.47 23.99l3.09 -4.47c-0.2,-0.75 -0.72,-1.29 -1.55,-1.55l-4.69 2.91"/>
    <path class="fil0 str5" d="M45.28 22.09l-5.35 0.98c-0.39,0.67 -0.4,1.42 0,2.19l5.38 1.26"/>
    <path class="fil0 str5" d="M50.56 26.61l5.36 -0.99c0.39,-0.66 0.39,-1.42 0,-2.19l-5.38 -1.26"/>
   </g>
   <rect class="fil0 str0" x="1.64" y="1.64" width="92.61" height="92.61" rx="20.67" ry="21.73"/>
   <g>
    <line class="fil0 str1" x1="23.38" y1="34.14" x2="72.61" y2= "34.89" />
   </g>
   <rect class="fil0 str2" x="24.79" y="49.81" width="15.42" height="15.43"/>
   <g>
    <line class="fil0 str3" x1="78.93" y1="39.16" x2="78.7" y2= "78.63" />
   </g>
   <g>
    <line class="fil0 str3" x1="17.18" y1="38.6" x2="16.95" y2= "78.14" />
   </g>
   <g>
    <line class="fil0 str3" x1="48.13" y1="32.39" x2="47.89" y2= "83.11" />
   </g>
   <g>
    <line class="fil0 str1" x1="32.56" y1="34.33" x2="32.33" y2= "49.81" />
   </g>
   <g>
    <line class="fil0 str3" x1="32.42" y1="65.87" x2="32.53" y2= "74.51" />
   </g>
   <rect class="fil0 str4" x="10.74" y="30.25" width="12.64" height="8.34"/>
   <rect class="fil0 str4" x="72.61" y="30.81" width="12.64" height="8.34"/>
   <g>
    <ellipse class="fil0 str2" transform="matrix(0.409414 0.172951 -0.168687 0.399319 31.4617 16.6437)" rx="11.46" ry="11.75"/>
    <path class="fil0 str2" d="M36.17 14.6l1.64 -7.39c-0.65,-0.86 -1.61,-1.27 -2.81,-1.18l-4.52 6.2"/>
    <path class="fil0 str2" d="M27.53 18.92l-1.64 7.39c0.64,0.86 1.6,1.28 2.8,1.19l4.53 -6.21"/>
    <path class="fil0 str2" d="M33.38 12.18l-4.07 -6.39c-1.06,-0.15 -2.04,0.24 -2.82,1.15l1.19 7.59"/>
    <path class="fil0 str2" d="M30.32 21.35l4.07 6.38c1.06,0.15 2.03,-0.23 2.82,-1.15l-1.19 -7.58"/>
    <path class="fil0 str2" d="M27.03 15.3l-6.38 4.07c-0.15,1.06 0.34,2.08 1.25,2.87l7.59 -1.19"/>
    <path class="fil0 str2" d="M36.2 18.36l6.38 -4.07c0.16,-1.06 -0.23,-2.03 -1.14,-2.82l-7.59 1.19"/>
    <path class="fil0 str2" d="M29.3 12.57l-7.38 -1.64c-0.86,0.65 -1.28,1.61 -1.19,2.81l6.21 4.52"/>
    <path class="fil0 str2" d="M33.63 21.21l7.39 1.64c0.86,-0.64 1.27,-1.6 1.18,-2.8l-6.21 -4.53"/>
   </g>
   <g>
    <line class="fil0 str1" x1="40.2" y1="58.38" x2="55.24" y2= "58.35" />
   </g>
   <rect class="fil0 str2" x="55.24" y="49.82" width="15.42" height="15.43"/>
   <g>
    <line class="fil0 str1" x1="70.66" y1="58.4" x2="78.87" y2= "58.37" />
   </g>
   <g>
    <line class="fil0 str1" x1="62.95" y1="50.36" x2="62.72" y2= "34.54" />
   </g>
   <g>
    <line class="fil0 str3" x1="63.67" y1="65.08" x2="63.71" y2= "74.17" />
   </g>
   <g>
    <circle class="fil0 str5" cx="63.3" cy="82.47" r="3.66"/>
    <path class="fil0 str5" d="M65.84 79.8l-0.98 -5.35c-0.67,-0.39 -1.42,-0.4 -2.19,0l-1.26 5.37"/>
    <path class="fil0 str5" d="M61.33 85.08l0.98 5.35c0.67,0.39 1.42,0.4 2.19,0l1.26 -5.38"/>
    <path class="fil0 str5" d="M63.31 78.98l-4.48 -3.09c-0.74,0.19 -1.28,0.72 -1.54,1.54l2.91 4.7"/>
    <path class="fil0 str5" d="M63.85 85.9l4.48 3.09c0.75,-0.2 1.29,-0.72 1.55,-1.55l-2.91 -4.69"/>
    <path class="fil0 str5" d="M59.99 82.82l-3.09 4.48c0.19,0.75 0.8,1.28 1.63,1.55l4.69 -2.91"/>
    <path class="fil0 str5" d="M66.91 82.28l3.09 -4.48c-0.19,-0.75 -0.72,-1.28 -1.54,-1.55l-4.7 2.91"/>
    <path class="fil0 str5" d="M60.73 80.37l-5.35 0.99c-0.39,0.66 -0.4,1.42 0,2.19l5.37 1.26"/>
    <path class="fil0 str5" d="M66.01 84.89l5.35 -0.98c0.39,-0.67 0.4,-1.42 0,-2.19l-5.38 -1.26"/>
   </g>
   <rect class="fil0 str5" x="74.17" y="78.63" width="9.02" height="8.34"/>
   <g>
    <line class="fil0 str3" x1="71.95" y1="82.81" x2="74.17" y2= "82.78" />
   </g>
   <rect class="fil0 str5" x="12.54" y="78.14" width="9.02" height="8.34"/>
   <g>
    <line class="fil0 str3" x1="21.66" y1="82.8" x2="23.88" y2= "82.77" />
   </g>
   <g>
    <circle class="fil0 str5" cx="32.17" cy="82.78" r="3.66"/>
    <path class="fil0 str5" d="M34.72 80.11l-0.98 -5.36c-0.67,-0.38 -1.42,-0.39 -2.19,0l-1.26 5.38"/>
    <path class="fil0 str5" d="M30.21 85.39l0.98 5.35c0.67,0.39 1.42,0.4 2.19,0l1.26 -5.38"/>
    <path class="fil0 str5" d="M32.19 79.28l-4.48 -3.09c-0.74,0.2 -1.28,0.73 -1.55,1.55l2.92 4.69"/>
    <path class="fil0 str5" d="M32.73 86.21l4.48 3.09c0.75,-0.2 1.29,-0.72 1.55,-1.55l-2.91 -4.69"/>
    <path class="fil0 str5" d="M28.87 83.13l-3.09 4.48c0.19,0.74 0.8,1.28 1.63,1.55l4.69 -2.92"/>
    <path class="fil0 str5" d="M35.79 82.59l3.09 -4.48c-0.19,-0.75 -0.72,-1.29 -1.55,-1.55l-4.69 2.91"/>
    <path class="fil0 str5" d="M29.61 80.68l-5.36 0.98c-0.38,0.67 -0.39,1.42 0,2.2l5.38 1.25"/>
    <path class="fil0 str5" d="M34.89 85.2l5.35 -0.98c0.39,-0.67 0.4,-1.42 0,-2.2l-5.38 -1.25"/>
   </g>
   <g>
    <line class="fil0 str1" x1="17.27" y1="58.39" x2="24.79" y2= "58.36" />
   </g>
   <g>
    <line class="fil0 str3" x1="40.46" y1="83.13" x2="55.5" y2= "83.1" />
   </g>
   <g>
    <ellipse class="fil0 str2" transform="matrix(0.409414 0.172951 -0.168687 0.399319 65.0332 17.6083)" rx="11.46" ry="11.75"/>
    <path class="fil0 str2" d="M69.74 15.57l1.64 -7.39c-0.65,-0.86 -1.6,-1.28 -2.81,-1.19l-4.52 6.21"/>
    <path class="fil0 str2" d="M61.1 19.89l-1.64 7.39c0.64,0.86 1.6,1.27 2.81,1.18l4.52 -6.2"/>
    <path class="fil0 str2" d="M66.95 13.14l-4.07 -6.38c-1.06,-0.15 -2.04,0.23 -2.82,1.15l1.19 7.58"/>
    <path class="fil0 str2" d="M63.89 22.31l4.07 6.38c1.06,0.16 2.03,-0.23 2.82,-1.14l-1.19 -7.59"/>
    <path class="fil0 str2" d="M60.6 16.27l-6.38 4.06c-0.15,1.07 0.34,2.09 1.25,2.87l7.59 -1.19"/>
    <path class="fil0 str2" d="M69.77 19.32l6.39 -4.06c0.15,-1.07 -0.23,-2.04 -1.15,-2.83l-7.59 1.19"/>
    <path class="fil0 str2" d="M62.88 13.54l-7.39 -1.64c-0.86,0.64 -1.28,1.6 -1.19,2.81l6.21 4.52"/>
    <path class="fil0 str2" d="M67.2 22.18l7.39 1.64c0.86,-0.65 1.27,-1.61 1.18,-2.81l-6.2 -4.52"/>
   </g>
   <g>
    <circle class="fil0 str5" cx="47.85" cy="24.18" r="3.66"/>
    <path class="fil0 str5" d="M50.4 21.51l-0.98 -5.35c-0.67,-0.39 -1.42,-0.39 -2.2,0l-1.25 5.38"/>
    <path class="fil0 str5" d="M45.88 26.8l0.98 5.35c0.67,0.39 1.42,0.39 2.2,0l1.25 -5.38"/>
    <path class="fil0 str5" d="M47.87 20.69l-4.48 -3.09c-0.75,0.2 -1.28,0.72 -1.55,1.55l2.91 4.69"/>
    <path class="fil0 str5" d="M48.41 27.62l4.48 3.09c0.75,-0.2 1.28,-0.72 1.55,-1.55l-2.91 -4.69"/>
    <path class="fil0 str5" d="M44.54 24.54l-3.09 4.47c0.2,0.75 0.81,1.29 1.64,1.56l4.69 -2.92"/>
    <path class="fil0 str5" d="M51.47 23.99l3.09 -4.47c-0.2,-0.75 -0.72,-1.29 -1.55,-1.55l-4.69 2.91"/>
    <path class="fil0 str5" d="M45.28 22.09l-5.35 0.98c-0.39,0.67 -0.4,1.42 0,2.19l5.38 1.26"/>
    <path class="fil0 str5" d="M50.56 26.61l5.36 -0.99c0.39,-0.66 0.39,-1.42 0,-2.19l-5.38 -1.26"/>
   </g>
  </g>
 </g>
</svg>
