<?xml version="1.0" encoding="UTF-8"?>
<!DOCTYPE svg PUBLIC "-//W3C//DTD SVG 1.1//EN" "http://www.w3.org/Graphics/SVG/1.1/DTD/svg11.dtd">
<!-- Creator: CorelDRAW 2018 (64 Bit Versão de avaliação) -->
<svg xmlns="http://www.w3.org/2000/svg" xml:space="preserve" width="48px" height="48px" version="1.1" style="shape-rendering:geometricPrecision; text-rendering:geometricPrecision; image-rendering:optimizeQuality; fill-rule:evenodd; clip-rule:evenodd"
viewBox="0 0 48 48.05"
 xmlns:xlink="http://www.w3.org/1999/xlink">
 <defs>
  <style type="text/css">
   <![CDATA[
    .str2 {stroke:black;stroke-width:1.09;stroke-miterlimit:22.9256}
    .str0 {stroke:black;stroke-width:1.64;stroke-miterlimit:22.9256}
    .str5 {stroke:black;stroke-width:0.82;stroke-miterlimit:22.9256}
    .str4 {stroke:black;stroke-width:1.37;stroke-miterlimit:22.9256}
    .str1 {stroke:black;stroke-width:1.09;stroke-miterlimit:22.9256}
    .str3 {stroke:black;stroke-width:0.82;stroke-miterlimit:22.9256}
    .fil0 {fill:none}
   ]]>
  </style>
 </defs>
 <g id="Camada_x0020_1">
  <metadata id="CorelCorpID_0Corel-Layer"/>
  <g id="_2123538195568">
   <rect class="fil0 str0" x="0.87" y="0.92" width="46.31" height="46.31" rx="10.34" ry="10.86"/>
   <g>
    <line class="fil0 str1" x1="11.69" y1="17.07" x2="36.3" y2= "17.45" />
   </g>
   <rect class="fil0 str2" x="12.39" y="24.9" width="7.71" height="7.72"/>
   <g>
    <line class="fil0 str3" x1="39.46" y1="19.58" x2="39.35" y2= "39.31" />
   </g>
   <g>
    <line class="fil0 str3" x1="8.59" y1="19.3" x2="8.47" y2= "39.07" />
   </g>
   <g>
    <line class="fil0 str3" x1="24.06" y1="16.2" x2="23.95" y2= "41.56" />
   </g>
   <g>
    <line class="fil0 str1" x1="16.28" y1="17.16" x2="16.17" y2= "24.9" />
   </g>
   <g>
    <line class="fil0 str3" x1="16.21" y1="32.93" x2="16.27" y2= "37.25" />
   </g>
   <rect class="fil0 str4" x="5.37" y="15.13" width="6.32" height="4.17"/>
   <rect class="fil0 str4" x="36.3" y="15.41" width="6.32" height="4.17"/>
   <g>
    <ellipse class="fil0 str2" transform="matrix(0.409414 0.172951 -0.168687 0.399319 15.7309 8.32183)" rx="5.73" ry="5.88"/>
    <path class="fil0 str2" d="M18.08 7.3l0.82 -3.69c-0.32,-0.43 -0.8,-0.64 -1.4,-0.6l-2.26 3.11"/>
    <path class="fil0 str2" d="M13.76 9.46l-0.82 3.7c0.33,0.43 0.81,0.63 1.41,0.59l2.26 -3.1"/>
    <path class="fil0 str2" d="M16.69 6.09l-2.04 -3.19c-0.53,-0.08 -1.01,0.11 -1.41,0.57l0.6 3.79"/>
    <path class="fil0 str2" d="M15.16 10.67l2.03 3.19c0.53,0.08 1.02,-0.11 1.41,-0.57l-0.59 -3.79"/>
    <path class="fil0 str2" d="M13.52 7.65l-3.2 2.03c-0.07,0.54 0.17,1.05 0.63,1.44l3.8 -0.6"/>
    <path class="fil0 str2" d="M18.1 9.18l3.19 -2.03c0.08,-0.54 -0.11,-1.02 -0.57,-1.42l-3.79 0.6"/>
    <path class="fil0 str2" d="M14.65 6.29l-3.69 -0.82c-0.43,0.32 -0.64,0.8 -0.6,1.4l3.11 2.26"/>
    <path class="fil0 str2" d="M16.81 10.61l3.7 0.82c0.43,-0.33 0.64,-0.81 0.59,-1.41l-3.1 -2.26"/>
   </g>
   <g>
    <line class="fil0 str1" x1="20.1" y1="29.19" x2="27.62" y2= "29.18" />
   </g>
   <rect class="fil0 str2" x="27.62" y="24.91" width="7.71" height="7.72"/>
   <g>
    <line class="fil0 str1" x1="35.33" y1="29.2" x2="39.43" y2= "29.18" />
   </g>
   <g>
    <line class="fil0 str1" x1="31.48" y1="25.18" x2="31.36" y2= "17.27" />
   </g>
   <g>
    <line class="fil0 str3" x1="31.84" y1="32.54" x2="31.85" y2= "37.09" />
   </g>
   <g>
    <circle class="fil0 str5" cx="31.65" cy="41.23" r="1.83"/>
    <path class="fil0 str5" d="M32.92 39.9l-0.49 -2.68c-0.33,-0.19 -0.71,-0.2 -1.1,0l-0.63 2.69"/>
    <path class="fil0 str5" d="M30.66 42.54l0.49 2.68c0.34,0.19 0.71,0.19 1.1,0l0.63 -2.69"/>
    <path class="fil0 str5" d="M31.66 39.49l-2.24 -1.55c-0.38,0.1 -0.64,0.36 -0.78,0.78l1.46 2.34"/>
    <path class="fil0 str5" d="M31.93 42.95l2.24 1.55c0.37,-0.1 0.64,-0.37 0.77,-0.78l-1.45 -2.34"/>
    <path class="fil0 str5" d="M29.99 41.41l-1.54 2.24c0.1,0.37 0.4,0.64 0.82,0.77l2.34 -1.45"/>
    <path class="fil0 str5" d="M33.46 41.14l1.54 -2.24c-0.1,-0.37 -0.36,-0.64 -0.77,-0.77l-2.35 1.45"/>
    <path class="fil0 str5" d="M30.36 40.19l-2.67 0.49c-0.2,0.33 -0.2,0.71 0,1.09l2.69 0.63"/>
    <path class="fil0 str5" d="M33 42.44l2.68 -0.49c0.19,-0.33 0.2,-0.71 0,-1.09l-2.69 -0.63"/>
   </g>
   <rect class="fil0 str5" x="37.08" y="39.31" width="4.51" height="4.17"/>
   <g>
    <line class="fil0 str3" x1="35.98" y1="41.41" x2="37.08" y2= "41.39" />
   </g>
   <rect class="fil0 str5" x="6.27" y="39.07" width="4.51" height="4.17"/>
   <g>
    <line class="fil0 str3" x1="10.83" y1="41.4" x2="11.94" y2= "41.38" />
   </g>
   <g>
    <circle class="fil0 str5" cx="16.09" cy="41.39" r="1.83"/>
    <path class="fil0 str5" d="M17.36 40.05l-0.49 -2.67c-0.33,-0.2 -0.71,-0.2 -1.1,0l-0.63 2.69"/>
    <path class="fil0 str5" d="M15.1 42.69l0.49 2.68c0.34,0.19 0.71,0.2 1.1,0l0.63 -2.69"/>
    <path class="fil0 str5" d="M16.1 39.64l-2.24 -1.54c-0.38,0.1 -0.65,0.36 -0.78,0.77l1.46 2.35"/>
    <path class="fil0 str5" d="M16.37 43.1l2.24 1.55c0.37,-0.1 0.64,-0.36 0.77,-0.77l-1.45 -2.35"/>
    <path class="fil0 str5" d="M14.43 41.56l-1.54 2.24c0.1,0.38 0.4,0.65 0.81,0.78l2.35 -1.46"/>
    <path class="fil0 str5" d="M17.9 41.29l1.54 -2.24c-0.1,-0.37 -0.36,-0.64 -0.77,-0.77l-2.35 1.45"/>
    <path class="fil0 str5" d="M14.8 40.34l-2.67 0.49c-0.2,0.34 -0.2,0.71 0,1.1l2.69 0.63"/>
    <path class="fil0 str5" d="M17.44 42.6l2.68 -0.49c0.19,-0.34 0.2,-0.71 0,-1.1l-2.69 -0.63"/>
   </g>
   <g>
    <line class="fil0 str1" x1="8.63" y1="29.2" x2="12.39" y2= "29.18" />
   </g>
   <g>
    <line class="fil0 str3" x1="20.23" y1="41.56" x2="27.75" y2= "41.55" />
   </g>
   <g>
    <ellipse class="fil0 str2" transform="matrix(0.409414 0.172951 -0.168687 0.399319 32.5166 8.80416)" rx="5.73" ry="5.88"/>
    <path class="fil0 str2" d="M34.87 7.78l0.82 -3.69c-0.32,-0.43 -0.8,-0.64 -1.4,-0.59l-2.27 3.1"/>
    <path class="fil0 str2" d="M30.55 9.94l-0.82 3.7c0.32,0.43 0.8,0.64 1.4,0.59l2.26 -3.1"/>
    <path class="fil0 str2" d="M33.47 6.57l-2.03 -3.19c-0.53,-0.08 -1.02,0.12 -1.41,0.57l0.59 3.8"/>
    <path class="fil0 str2" d="M31.95 11.16l2.03 3.19c0.53,0.07 1.02,-0.12 1.41,-0.58l-0.59 -3.79"/>
    <path class="fil0 str2" d="M30.3 8.13l-3.19 2.04c-0.08,0.53 0.17,1.04 0.63,1.43l3.79 -0.59"/>
    <path class="fil0 str2" d="M34.89 9.66l3.19 -2.03c0.07,-0.53 -0.12,-1.02 -0.58,-1.41l-3.79 0.59"/>
    <path class="fil0 str2" d="M31.44 6.77l-3.7 -0.82c-0.43,0.32 -0.64,0.8 -0.59,1.4l3.1 2.26"/>
    <path class="fil0 str2" d="M33.6 11.09l3.69 0.82c0.43,-0.32 0.64,-0.8 0.6,-1.4l-3.11 -2.27"/>
   </g>
   <g>
    <circle class="fil0 str5" cx="23.93" cy="12.09" r="1.83"/>
    <path class="fil0 str5" d="M25.2 10.76l-0.49 -2.68c-0.34,-0.19 -0.71,-0.2 -1.1,0l-0.63 2.69"/>
    <path class="fil0 str5" d="M22.94 13.4l0.49 2.67c0.34,0.2 0.71,0.2 1.1,0l0.63 -2.68"/>
    <path class="fil0 str5" d="M23.93 10.35l-2.23 -1.55c-0.38,0.1 -0.65,0.36 -0.78,0.78l1.46 2.34"/>
    <path class="fil0 str5" d="M24.21 13.81l2.23 1.54c0.38,-0.09 0.65,-0.36 0.78,-0.77l-1.46 -2.35"/>
    <path class="fil0 str5" d="M22.27 12.27l-1.54 2.24c0.1,0.37 0.4,0.64 0.81,0.77l2.35 -1.45"/>
    <path class="fil0 str5" d="M25.74 12l1.54 -2.24c-0.1,-0.38 -0.36,-0.64 -0.77,-0.78l-2.35 1.46"/>
    <path class="fil0 str5" d="M22.64 11.05l-2.67 0.49c-0.2,0.33 -0.2,0.71 0,1.09l2.68 0.63"/>
    <path class="fil0 str5" d="M25.28 13.3l2.68 -0.49c0.19,-0.33 0.2,-0.71 0,-1.09l-2.69 -0.63"/>
   </g>
   <rect class="fil0 str0" x="0.82" y="0.82" width="46.31" height="46.31" rx="10.34" ry="10.86"/>
   <g>
    <line class="fil0 str1" x1="11.69" y1="17.07" x2="36.3" y2= "17.45" />
   </g>
   <rect class="fil0 str2" x="12.39" y="24.9" width="7.71" height="7.72"/>
   <g>
    <line class="fil0 str3" x1="39.46" y1="19.58" x2="39.35" y2= "39.31" />
   </g>
   <g>
    <line class="fil0 str3" x1="8.59" y1="19.3" x2="8.47" y2= "39.07" />
   </g>
   <g>
    <line class="fil0 str3" x1="24.06" y1="16.2" x2="23.95" y2= "41.56" />
   </g>
   <g>
    <line class="fil0 str1" x1="16.28" y1="17.16" x2="16.17" y2= "24.9" />
   </g>
   <g>
    <line class="fil0 str3" x1="16.21" y1="32.93" x2="16.27" y2= "37.25" />
   </g>
   <rect class="fil0 str4" x="5.37" y="15.13" width="6.32" height="4.17"/>
   <rect class="fil0 str4" x="36.3" y="15.41" width="6.32" height="4.17"/>
   <g>
    <ellipse class="fil0 str2" transform="matrix(0.409414 0.172951 -0.168687 0.399319 15.7309 8.32183)" rx="5.73" ry="5.88"/>
    <path class="fil0 str2" d="M18.08 7.3l0.82 -3.69c-0.32,-0.43 -0.8,-0.64 -1.4,-0.6l-2.26 3.11"/>
    <path class="fil0 str2" d="M13.76 9.46l-0.82 3.7c0.33,0.43 0.81,0.63 1.41,0.59l2.26 -3.1"/>
    <path class="fil0 str2" d="M16.69 6.09l-2.04 -3.19c-0.53,-0.08 -1.01,0.11 -1.41,0.57l0.6 3.79"/>
    <path class="fil0 str2" d="M15.16 10.67l2.03 3.19c0.53,0.08 1.02,-0.11 1.41,-0.57l-0.59 -3.79"/>
    <path class="fil0 str2" d="M13.52 7.65l-3.2 2.03c-0.07,0.54 0.17,1.05 0.63,1.44l3.8 -0.6"/>
    <path class="fil0 str2" d="M18.1 9.18l3.19 -2.03c0.08,-0.54 -0.11,-1.02 -0.57,-1.42l-3.79 0.6"/>
    <path class="fil0 str2" d="M14.65 6.29l-3.69 -0.82c-0.43,0.32 -0.64,0.8 -0.6,1.4l3.11 2.26"/>
    <path class="fil0 str2" d="M16.81 10.61l3.7 0.82c0.43,-0.33 0.64,-0.81 0.59,-1.41l-3.1 -2.26"/>
   </g>
   <g>
    <line class="fil0 str1" x1="20.1" y1="29.19" x2="27.62" y2= "29.18" />
   </g>
   <rect class="fil0 str2" x="27.62" y="24.91" width="7.71" height="7.72"/>
   <g>
    <line class="fil0 str1" x1="35.33" y1="29.2" x2="39.43" y2= "29.18" />
   </g>
   <g>
    <line class="fil0 str1" x1="31.48" y1="25.18" x2="31.36" y2= "17.27" />
   </g>
   <g>
    <line class="fil0 str3" x1="31.84" y1="32.54" x2="31.85" y2= "37.09" />
   </g>
   <g>
    <circle class="fil0 str5" cx="31.65" cy="41.23" r="1.83"/>
    <path class="fil0 str5" d="M32.92 39.9l-0.49 -2.68c-0.33,-0.19 -0.71,-0.2 -1.1,0l-0.63 2.69"/>
    <path class="fil0 str5" d="M30.66 42.54l0.49 2.68c0.34,0.19 0.71,0.19 1.1,0l0.63 -2.69"/>
    <path class="fil0 str5" d="M31.66 39.49l-2.24 -1.55c-0.38,0.1 -0.64,0.36 -0.78,0.78l1.46 2.34"/>
    <path class="fil0 str5" d="M31.93 42.95l2.24 1.55c0.37,-0.1 0.64,-0.37 0.77,-0.78l-1.45 -2.34"/>
    <path class="fil0 str5" d="M29.99 41.41l-1.54 2.24c0.1,0.37 0.4,0.64 0.82,0.77l2.34 -1.45"/>
    <path class="fil0 str5" d="M33.46 41.14l1.54 -2.24c-0.1,-0.37 -0.36,-0.64 -0.77,-0.77l-2.35 1.45"/>
    <path class="fil0 str5" d="M30.36 40.19l-2.67 0.49c-0.2,0.33 -0.2,0.71 0,1.09l2.69 0.63"/>
    <path class="fil0 str5" d="M33 42.44l2.68 -0.49c0.19,-0.33 0.2,-0.71 0,-1.09l-2.69 -0.63"/>
   </g>
   <rect class="fil0 str5" x="37.08" y="39.31" width="4.51" height="4.17"/>
   <g>
    <line class="fil0 str3" x1="35.98" y1="41.41" x2="37.08" y2= "41.39" />
   </g>
   <rect class="fil0 str5" x="6.27" y="39.07" width="4.51" height="4.17"/>
   <g>
    <line class="fil0 str3" x1="10.83" y1="41.4" x2="11.94" y2= "41.38" />
   </g>
   <g>
    <circle class="fil0 str5" cx="16.09" cy="41.39" r="1.83"/>
    <path class="fil0 str5" d="M17.36 40.05l-0.49 -2.67c-0.33,-0.2 -0.71,-0.2 -1.1,0l-0.63 2.69"/>
    <path class="fil0 str5" d="M15.1 42.69l0.49 2.68c0.34,0.19 0.71,0.2 1.1,0l0.63 -2.69"/>
    <path class="fil0 str5" d="M16.1 39.64l-2.24 -1.54c-0.38,0.1 -0.65,0.36 -0.78,0.77l1.46 2.35"/>
    <path class="fil0 str5" d="M16.37 43.1l2.24 1.55c0.37,-0.1 0.64,-0.36 0.77,-0.77l-1.45 -2.35"/>
    <path class="fil0 str5" d="M14.43 41.56l-1.54 2.24c0.1,0.38 0.4,0.65 0.81,0.78l2.35 -1.46"/>
    <path class="fil0 str5" d="M17.9 41.29l1.54 -2.24c-0.1,-0.37 -0.36,-0.64 -0.77,-0.77l-2.35 1.45"/>
    <path class="fil0 str5" d="M14.8 40.34l-2.67 0.49c-0.2,0.34 -0.2,0.71 0,1.1l2.69 0.63"/>
    <path class="fil0 str5" d="M17.44 42.6l2.68 -0.49c0.19,-0.34 0.2,-0.71 0,-1.1l-2.69 -0.63"/>
   </g>
   <g>
    <line class="fil0 str1" x1="8.63" y1="29.2" x2="12.39" y2= "29.18" />
   </g>
   <g>
    <line class="fil0 str3" x1="20.23" y1="41.56" x2="27.75" y2= "41.55" />
   </g>
   <g>
    <ellipse class="fil0 str2" transform="matrix(0.409414 0.172951 -0.168687 0.399319 32.5166 8.80416)" rx="5.73" ry="5.88"/>
    <path class="fil0 str2" d="M34.87 7.78l0.82 -3.69c-0.32,-0.43 -0.8,-0.64 -1.4,-0.59l-2.27 3.1"/>
    <path class="fil0 str2" d="M30.55 9.94l-0.82 3.7c0.32,0.43 0.8,0.64 1.4,0.59l2.26 -3.1"/>
    <path class="fil0 str2" d="M33.47 6.57l-2.03 -3.19c-0.53,-0.08 -1.02,0.12 -1.41,0.57l0.59 3.8"/>
    <path class="fil0 str2" d="M31.95 11.16l2.03 3.19c0.53,0.07 1.02,-0.12 1.41,-0.58l-0.59 -3.79"/>
    <path class="fil0 str2" d="M30.3 8.13l-3.19 2.04c-0.08,0.53 0.17,1.04 0.63,1.43l3.79 -0.59"/>
    <path class="fil0 str2" d="M34.89 9.66l3.19 -2.03c0.07,-0.53 -0.12,-1.02 -0.58,-1.41l-3.79 0.59"/>
    <path class="fil0 str2" d="M31.44 6.77l-3.7 -0.82c-0.43,0.32 -0.64,0.8 -0.59,1.4l3.1 2.26"/>
    <path class="fil0 str2" d="M33.6 11.09l3.69 0.82c0.43,-0.32 0.64,-0.8 0.6,-1.4l-3.11 -2.27"/>
   </g>
   <g>
    <circle class="fil0 str5" cx="23.93" cy="12.09" r="1.83"/>
    <path class="fil0 str5" d="M25.2 10.76l-0.49 -2.68c-0.34,-0.19 -0.71,-0.2 -1.1,0l-0.63 2.69"/>
    <path class="fil0 str5" d="M22.94 13.4l0.49 2.67c0.34,0.2 0.71,0.2 1.1,0l0.63 -2.68"/>
    <path class="fil0 str5" d="M23.93 10.35l-2.23 -1.55c-0.38,0.1 -0.65,0.36 -0.78,0.78l1.46 2.34"/>
    <path class="fil0 str5" d="M24.21 13.81l2.23 1.54c0.38,-0.09 0.65,-0.36 0.78,-0.77l-1.46 -2.35"/>
    <path class="fil0 str5" d="M22.27 12.27l-1.54 2.24c0.1,0.37 0.4,0.64 0.81,0.77l2.35 -1.45"/>
    <path class="fil0 str5" d="M25.74 12l1.54 -2.24c-0.1,-0.38 -0.36,-0.64 -0.77,-0.78l-2.35 1.46"/>
    <path class="fil0 str5" d="M22.64 11.05l-2.67 0.49c-0.2,0.33 -0.2,0.71 0,1.09l2.68 0.63"/>
    <path class="fil0 str5" d="M25.28 13.3l2.68 -0.49c0.19,-0.33 0.2,-0.71 0,-1.09l-2.69 -0.63"/>
   </g>
  </g>
 </g>
</svg>
