<?xml version="1.0" encoding="UTF-8"?>
<!DOCTYPE svg PUBLIC "-//W3C//DTD SVG 1.1//EN" "http://www.w3.org/Graphics/SVG/1.1/DTD/svg11.dtd">
<!-- Creator: CorelDRAW 2018 (64 Bit Versão de avaliação) -->
<svg xmlns="http://www.w3.org/2000/svg" xml:space="preserve" width="128px" height="128px" version="1.1" style="shape-rendering:geometricPrecision; text-rendering:geometricPrecision; image-rendering:optimizeQuality; fill-rule:evenodd; clip-rule:evenodd"
viewBox="0 0 128 128.14"
 xmlns:xlink="http://www.w3.org/1999/xlink">
 <defs>
  <style type="text/css">
   <![CDATA[
    .str2 {stroke:black;stroke-width:2.92;stroke-miterlimit:22.9256}
    .str0 {stroke:black;stroke-width:4.38;stroke-miterlimit:22.9256}
    .str5 {stroke:black;stroke-width:2.19;stroke-miterlimit:22.9256}
    .str4 {stroke:black;stroke-width:3.65;stroke-miterlimit:22.9256}
    .str1 {stroke:black;stroke-width:2.92;stroke-miterlimit:22.9256}
    .str3 {stroke:black;stroke-width:2.19;stroke-miterlimit:22.9256}
    .fil0 {fill:none}
   ]]>
  </style>
 </defs>
 <g id="Camada_x0020_1">
  <metadata id="CorelCorpID_0Corel-Layer"/>
  <g id="_2123574286496">
   <rect class="fil0 str0" x="2.33" y="2.47" width="123.48" height="123.48" rx="27.56" ry="28.97"/>
   <g>
    <line class="fil0 str1" x1="31.18" y1="45.52" x2="96.81" y2= "46.52" />
   </g>
   <rect class="fil0 str2" x="33.05" y="66.41" width="20.56" height="20.57"/>
   <g>
    <line class="fil0 str3" x1="105.24" y1="52.21" x2="104.93" y2= "104.83" />
   </g>
   <g>
    <line class="fil0 str3" x1="22.91" y1="51.46" x2="22.6" y2= "104.19" />
   </g>
   <g>
    <line class="fil0 str3" x1="64.17" y1="43.19" x2="63.86" y2= "110.82" />
   </g>
   <g>
    <line class="fil0 str1" x1="43.42" y1="45.77" x2="43.11" y2= "66.41" />
   </g>
   <g>
    <line class="fil0 str3" x1="43.23" y1="87.82" x2="43.38" y2= "99.34" />
   </g>
   <rect class="fil0 str4" x="14.32" y="40.34" width="16.86" height="11.13"/>
   <rect class="fil0 str4" x="96.81" y="41.09" width="16.86" height="11.13"/>
   <g>
    <ellipse class="fil0 str2" transform="matrix(0.409414 0.172951 -0.168687 0.399319 41.949 22.1916)" rx="15.28" ry="15.67"/>
    <path class="fil0 str2" d="M48.23 19.47l2.18 -9.85c-0.86,-1.15 -2.14,-1.71 -3.74,-1.59l-6.03 8.28"/>
    <path class="fil0 str2" d="M36.7 25.23l-2.18 9.85c0.86,1.15 2.13,1.71 3.74,1.58l6.03 -8.27"/>
    <path class="fil0 str2" d="M44.5 16.24l-5.42 -8.51c-1.42,-0.21 -2.72,0.3 -3.77,1.53l1.59 10.11"/>
    <path class="fil0 str2" d="M40.43 28.46l5.42 8.51c1.42,0.21 2.71,-0.31 3.76,-1.53l-1.58 -10.11"/>
    <path class="fil0 str2" d="M36.04 20.41l-8.51 5.42c-0.2,1.42 0.45,2.77 1.67,3.82l10.12 -1.58"/>
    <path class="fil0 str2" d="M48.27 24.48l8.51 -5.42c0.2,-1.42 -0.31,-2.72 -1.53,-3.77l-10.12 1.59"/>
    <path class="fil0 str2" d="M39.07 16.76l-9.85 -2.18c-1.15,0.86 -1.7,2.14 -1.58,3.74l8.28 6.03"/>
    <path class="fil0 str2" d="M44.84 28.29l9.85 2.18c1.14,-0.86 1.7,-2.14 1.58,-3.74l-8.28 -6.03"/>
   </g>
   <g>
    <line class="fil0 str1" x1="53.6" y1="77.84" x2="73.66" y2= "77.8" />
   </g>
   <rect class="fil0 str2" x="73.66" y="66.43" width="20.56" height="20.57"/>
   <g>
    <line class="fil0 str1" x1="94.21" y1="77.86" x2="105.16" y2= "77.82" />
   </g>
   <g>
    <line class="fil0 str1" x1="83.94" y1="67.15" x2="83.63" y2= "46.05" />
   </g>
   <g>
    <line class="fil0 str3" x1="84.9" y1="86.78" x2="84.94" y2= "98.9" />
   </g>
   <g>
    <circle class="fil0 str5" cx="84.39" cy="109.96" r="4.88"/>
    <path class="fil0 str5" d="M87.79 106.4l-1.31 -7.14c-0.89,-0.52 -1.89,-0.53 -2.92,0l-1.68 7.17"/>
    <path class="fil0 str5" d="M81.77 113.44l1.31 7.13c0.89,0.52 1.89,0.53 2.92,0l1.68 -7.16"/>
    <path class="fil0 str5" d="M84.42 105.3l-5.97 -4.12c-1,0.26 -1.72,0.96 -2.07,2.07l3.88 6.25"/>
    <path class="fil0 str5" d="M85.14 114.54l5.97 4.12c1,-0.27 1.71,-0.97 2.07,-2.07l-3.88 -6.26"/>
    <path class="fil0 str5" d="M79.98 110.43l-4.12 5.97c0.27,0.99 1.08,1.71 2.18,2.07l6.26 -3.89"/>
    <path class="fil0 str5" d="M89.22 109.7l4.12 -5.97c-0.26,-0.99 -0.96,-1.71 -2.07,-2.06l-6.25 3.88"/>
    <path class="fil0 str5" d="M80.97 107.17l-7.14 1.31c-0.51,0.89 -0.53,1.89 0,2.92l7.17 1.68"/>
    <path class="fil0 str5" d="M88.01 113.19l7.14 -1.31c0.52,-0.89 0.53,-1.9 0,-2.92l-7.17 -1.68"/>
   </g>
   <rect class="fil0 str5" x="98.89" y="104.83" width="12.03" height="11.13"/>
   <g>
    <line class="fil0 str3" x1="95.94" y1="110.42" x2="98.89" y2= "110.38" />
   </g>
   <rect class="fil0 str5" x="16.71" y="104.19" width="12.03" height="11.13"/>
   <g>
    <line class="fil0 str3" x1="28.88" y1="110.4" x2="31.84" y2= "110.36" />
   </g>
   <g>
    <circle class="fil0 str5" cx="42.9" cy="110.37" r="4.88"/>
    <path class="fil0 str5" d="M46.29 106.81l-1.3 -7.14c-0.9,-0.52 -1.9,-0.53 -2.93,0l-1.68 7.17"/>
    <path class="fil0 str5" d="M40.27 113.85l1.31 7.13c0.89,0.52 1.9,0.53 2.93,0l1.67 -7.16"/>
    <path class="fil0 str5" d="M42.92 105.71l-5.97 -4.12c-0.99,0.26 -1.71,0.96 -2.06,2.07l3.88 6.25"/>
    <path class="fil0 str5" d="M43.64 114.95l5.98 4.12c0.99,-0.27 1.71,-0.97 2.06,-2.07l-3.88 -6.26"/>
    <path class="fil0 str5" d="M38.49 110.84l-4.12 5.97c0.26,0.99 1.07,1.71 2.18,2.07l6.25 -3.89"/>
    <path class="fil0 str5" d="M47.72 110.11l4.12 -5.97c-0.26,-0.99 -0.96,-1.71 -2.06,-2.06l-6.26 3.88"/>
    <path class="fil0 str5" d="M39.48 107.58l-7.14 1.31c-0.52,0.89 -0.53,1.89 0,2.92l7.17 1.68"/>
    <path class="fil0 str5" d="M46.52 113.6l7.13 -1.31c0.52,-0.89 0.53,-1.9 0,-2.92l-7.17 -1.68"/>
   </g>
   <g>
    <line class="fil0 str1" x1="23.02" y1="77.86" x2="33.05" y2= "77.82" />
   </g>
   <g>
    <line class="fil0 str3" x1="53.95" y1="110.83" x2="74" y2= "110.8" />
   </g>
   <g>
    <ellipse class="fil0 str2" transform="matrix(0.409414 0.172951 -0.168687 0.399319 86.711 23.4778)" rx="15.28" ry="15.67"/>
    <path class="fil0 str2" d="M92.99 20.75l2.18 -9.85c-0.86,-1.14 -2.14,-1.7 -3.74,-1.58l-6.03 8.28"/>
    <path class="fil0 str2" d="M81.46 26.52l-2.18 9.85c0.86,1.15 2.14,1.7 3.74,1.58l6.03 -8.28"/>
    <path class="fil0 str2" d="M89.26 17.52l-5.42 -8.51c-1.42,-0.2 -2.72,0.31 -3.76,1.53l1.58 10.12"/>
    <path class="fil0 str2" d="M85.19 29.75l5.42 8.51c1.42,0.2 2.72,-0.31 3.77,-1.53l-1.59 -10.12"/>
    <path class="fil0 str2" d="M80.81 21.69l-8.52 5.42c-0.2,1.42 0.45,2.78 1.68,3.83l10.11 -1.59"/>
    <path class="fil0 str2" d="M93.03 25.77l8.51 -5.43c0.2,-1.41 -0.31,-2.71 -1.53,-3.76l-10.11 1.59"/>
    <path class="fil0 str2" d="M83.83 18.05l-9.85 -2.19c-1.14,0.86 -1.7,2.14 -1.58,3.75l8.28 6.03"/>
    <path class="fil0 str2" d="M89.6 29.57l9.85 2.19c1.15,-0.86 1.7,-2.14 1.58,-3.75l-8.28 -6.03"/>
   </g>
   <g>
    <circle class="fil0 str5" cx="63.8" cy="32.25" r="4.88"/>
    <path class="fil0 str5" d="M67.2 28.69l-1.31 -7.14c-0.89,-0.52 -1.89,-0.53 -2.92,0l-1.68 7.17"/>
    <path class="fil0 str5" d="M61.18 35.73l1.31 7.13c0.89,0.52 1.89,0.53 2.92,0l1.68 -7.17"/>
    <path class="fil0 str5" d="M63.83 27.59l-5.98 -4.12c-0.99,0.26 -1.71,0.96 -2.06,2.06l3.88 6.26"/>
    <path class="fil0 str5" d="M64.55 36.82l5.97 4.12c1,-0.26 1.71,-0.96 2.07,-2.06l-3.89 -6.26"/>
    <path class="fil0 str5" d="M59.39 32.71l-4.12 5.98c0.26,0.99 1.08,1.71 2.18,2.06l6.25 -3.88"/>
    <path class="fil0 str5" d="M68.63 31.99l4.12 -5.97c-0.27,-0.99 -0.97,-1.71 -2.07,-2.06l-6.25 3.88"/>
    <path class="fil0 str5" d="M60.38 29.45l-7.14 1.31c-0.52,0.89 -0.53,1.9 0,2.93l7.17 1.67"/>
    <path class="fil0 str5" d="M67.42 35.47l7.14 -1.3c0.51,-0.89 0.52,-1.9 0,-2.93l-7.17 -1.67"/>
   </g>
   <rect class="fil0 str0" x="2.19" y="2.19" width="123.48" height="123.48" rx="27.56" ry="28.97"/>
   <g>
    <line class="fil0 str1" x1="31.18" y1="45.52" x2="96.81" y2= "46.52" />
   </g>
   <rect class="fil0 str2" x="33.05" y="66.41" width="20.56" height="20.57"/>
   <g>
    <line class="fil0 str3" x1="105.24" y1="52.21" x2="104.93" y2= "104.83" />
   </g>
   <g>
    <line class="fil0 str3" x1="22.91" y1="51.46" x2="22.6" y2= "104.19" />
   </g>
   <g>
    <line class="fil0 str3" x1="64.17" y1="43.19" x2="63.86" y2= "110.82" />
   </g>
   <g>
    <line class="fil0 str1" x1="43.42" y1="45.77" x2="43.11" y2= "66.41" />
   </g>
   <g>
    <line class="fil0 str3" x1="43.23" y1="87.82" x2="43.38" y2= "99.34" />
   </g>
   <rect class="fil0 str4" x="14.32" y="40.34" width="16.86" height="11.13"/>
   <rect class="fil0 str4" x="96.81" y="41.09" width="16.86" height="11.13"/>
   <g>
    <ellipse class="fil0 str2" transform="matrix(0.409414 0.172951 -0.168687 0.399319 41.949 22.1916)" rx="15.28" ry="15.67"/>
    <path class="fil0 str2" d="M48.23 19.47l2.18 -9.85c-0.86,-1.15 -2.14,-1.71 -3.74,-1.59l-6.03 8.28"/>
    <path class="fil0 str2" d="M36.7 25.23l-2.18 9.85c0.86,1.15 2.13,1.71 3.74,1.58l6.03 -8.27"/>
    <path class="fil0 str2" d="M44.5 16.24l-5.42 -8.51c-1.42,-0.21 -2.72,0.3 -3.77,1.53l1.59 10.11"/>
    <path class="fil0 str2" d="M40.43 28.46l5.42 8.51c1.42,0.21 2.71,-0.31 3.76,-1.53l-1.58 -10.11"/>
    <path class="fil0 str2" d="M36.04 20.41l-8.51 5.42c-0.2,1.42 0.45,2.77 1.67,3.82l10.12 -1.58"/>
    <path class="fil0 str2" d="M48.27 24.48l8.51 -5.42c0.2,-1.42 -0.31,-2.72 -1.53,-3.77l-10.12 1.59"/>
    <path class="fil0 str2" d="M39.07 16.76l-9.85 -2.18c-1.15,0.86 -1.7,2.14 -1.58,3.74l8.28 6.03"/>
    <path class="fil0 str2" d="M44.84 28.29l9.85 2.18c1.14,-0.86 1.7,-2.14 1.58,-3.74l-8.28 -6.03"/>
   </g>
   <g>
    <line class="fil0 str1" x1="53.6" y1="77.84" x2="73.66" y2= "77.8" />
   </g>
   <rect class="fil0 str2" x="73.66" y="66.43" width="20.56" height="20.57"/>
   <g>
    <line class="fil0 str1" x1="94.21" y1="77.86" x2="105.16" y2= "77.82" />
   </g>
   <g>
    <line class="fil0 str1" x1="83.94" y1="67.15" x2="83.63" y2= "46.05" />
   </g>
   <g>
    <line class="fil0 str3" x1="84.9" y1="86.78" x2="84.94" y2= "98.9" />
   </g>
   <g>
    <circle class="fil0 str5" cx="84.39" cy="109.96" r="4.88"/>
    <path class="fil0 str5" d="M87.79 106.4l-1.31 -7.14c-0.89,-0.52 -1.89,-0.53 -2.92,0l-1.68 7.17"/>
    <path class="fil0 str5" d="M81.77 113.44l1.31 7.13c0.89,0.52 1.89,0.53 2.92,0l1.68 -7.16"/>
    <path class="fil0 str5" d="M84.42 105.3l-5.97 -4.12c-1,0.26 -1.72,0.96 -2.07,2.07l3.88 6.25"/>
    <path class="fil0 str5" d="M85.14 114.54l5.97 4.12c1,-0.27 1.71,-0.97 2.07,-2.07l-3.88 -6.26"/>
    <path class="fil0 str5" d="M79.98 110.43l-4.12 5.97c0.27,0.99 1.08,1.71 2.18,2.07l6.26 -3.89"/>
    <path class="fil0 str5" d="M89.22 109.7l4.12 -5.97c-0.26,-0.99 -0.96,-1.71 -2.07,-2.06l-6.25 3.88"/>
    <path class="fil0 str5" d="M80.97 107.17l-7.14 1.31c-0.51,0.89 -0.53,1.89 0,2.92l7.17 1.68"/>
    <path class="fil0 str5" d="M88.01 113.19l7.14 -1.31c0.52,-0.89 0.53,-1.9 0,-2.92l-7.17 -1.68"/>
   </g>
   <rect class="fil0 str5" x="98.89" y="104.83" width="12.03" height="11.13"/>
   <g>
    <line class="fil0 str3" x1="95.94" y1="110.42" x2="98.89" y2= "110.38" />
   </g>
   <rect class="fil0 str5" x="16.71" y="104.19" width="12.03" height="11.13"/>
   <g>
    <line class="fil0 str3" x1="28.88" y1="110.4" x2="31.84" y2= "110.36" />
   </g>
   <g>
    <circle class="fil0 str5" cx="42.9" cy="110.37" r="4.88"/>
    <path class="fil0 str5" d="M46.29 106.81l-1.3 -7.14c-0.9,-0.52 -1.9,-0.53 -2.93,0l-1.68 7.17"/>
    <path class="fil0 str5" d="M40.27 113.85l1.31 7.13c0.89,0.52 1.9,0.53 2.93,0l1.67 -7.16"/>
    <path class="fil0 str5" d="M42.92 105.71l-5.97 -4.12c-0.99,0.26 -1.71,0.96 -2.06,2.07l3.88 6.25"/>
    <path class="fil0 str5" d="M43.64 114.95l5.98 4.12c0.99,-0.27 1.71,-0.97 2.06,-2.07l-3.88 -6.26"/>
    <path class="fil0 str5" d="M38.49 110.84l-4.12 5.97c0.26,0.99 1.07,1.71 2.18,2.07l6.25 -3.89"/>
    <path class="fil0 str5" d="M47.72 110.11l4.12 -5.97c-0.26,-0.99 -0.96,-1.71 -2.06,-2.06l-6.26 3.88"/>
    <path class="fil0 str5" d="M39.48 107.58l-7.14 1.31c-0.52,0.89 -0.53,1.89 0,2.92l7.17 1.68"/>
    <path class="fil0 str5" d="M46.52 113.6l7.13 -1.31c0.52,-0.89 0.53,-1.9 0,-2.92l-7.17 -1.68"/>
   </g>
   <g>
    <line class="fil0 str1" x1="23.02" y1="77.86" x2="33.05" y2= "77.82" />
   </g>
   <g>
    <line class="fil0 str3" x1="53.95" y1="110.83" x2="74" y2= "110.8" />
   </g>
   <g>
    <ellipse class="fil0 str2" transform="matrix(0.409414 0.172951 -0.168687 0.399319 86.711 23.4778)" rx="15.28" ry="15.67"/>
    <path class="fil0 str2" d="M92.99 20.75l2.18 -9.85c-0.86,-1.14 -2.14,-1.7 -3.74,-1.58l-6.03 8.28"/>
    <path class="fil0 str2" d="M81.46 26.52l-2.18 9.85c0.86,1.15 2.14,1.7 3.74,1.58l6.03 -8.28"/>
    <path class="fil0 str2" d="M89.26 17.52l-5.42 -8.51c-1.42,-0.2 -2.72,0.31 -3.76,1.53l1.58 10.12"/>
    <path class="fil0 str2" d="M85.19 29.75l5.42 8.51c1.42,0.2 2.72,-0.31 3.77,-1.53l-1.59 -10.12"/>
    <path class="fil0 str2" d="M80.81 21.69l-8.52 5.42c-0.2,1.42 0.45,2.78 1.68,3.83l10.11 -1.59"/>
    <path class="fil0 str2" d="M93.03 25.77l8.51 -5.43c0.2,-1.41 -0.31,-2.71 -1.53,-3.76l-10.11 1.59"/>
    <path class="fil0 str2" d="M83.83 18.05l-9.85 -2.19c-1.14,0.86 -1.7,2.14 -1.58,3.75l8.28 6.03"/>
    <path class="fil0 str2" d="M89.6 29.57l9.85 2.19c1.15,-0.86 1.7,-2.14 1.58,-3.75l-8.28 -6.03"/>
   </g>
   <g>
    <circle class="fil0 str5" cx="63.8" cy="32.25" r="4.88"/>
    <path class="fil0 str5" d="M67.2 28.69l-1.31 -7.14c-0.89,-0.52 -1.89,-0.53 -2.92,0l-1.68 7.17"/>
    <path class="fil0 str5" d="M61.18 35.73l1.31 7.13c0.89,0.52 1.89,0.53 2.92,0l1.68 -7.17"/>
    <path class="fil0 str5" d="M63.83 27.59l-5.98 -4.12c-0.99,0.26 -1.71,0.96 -2.06,2.06l3.88 6.26"/>
    <path class="fil0 str5" d="M64.55 36.82l5.97 4.12c1,-0.26 1.71,-0.96 2.07,-2.06l-3.89 -6.26"/>
    <path class="fil0 str5" d="M59.39 32.71l-4.12 5.98c0.26,0.99 1.08,1.71 2.18,2.06l6.25 -3.88"/>
    <path class="fil0 str5" d="M68.63 31.99l4.12 -5.97c-0.27,-0.99 -0.97,-1.71 -2.07,-2.06l-6.25 3.88"/>
    <path class="fil0 str5" d="M60.38 29.45l-7.14 1.31c-0.52,0.89 -0.53,1.9 0,2.93l7.17 1.67"/>
    <path class="fil0 str5" d="M67.42 35.47l7.14 -1.3c0.51,-0.89 0.52,-1.9 0,-2.93l-7.17 -1.67"/>
   </g>
  </g>
 </g>
</svg>
