<?xml version="1.0"?><svg fill="#000000" xmlns="http://www.w3.org/2000/svg"  viewBox="0 0 50 50" width="150px" height="150px">    <path d="M 9 4 C 6.2504839 4 4 6.2504839 4 9 L 4 41 C 4 43.749516 6.2504839 46 9 46 L 41 46 C 43.749516 46 46 43.749516 46 41 L 46 9 C 46 6.2504839 43.749516 4 41 4 L 9 4 z M 9 6 L 41 6 C 42.668484 6 44 7.3315161 44 9 L 44 41 C 44 42.668484 42.668484 44 41 44 L 9 44 C 7.3315161 44 6 42.668484 6 41 L 6 9 C 6 7.3315161 7.3315161 6 9 6 z M 34 9 A 5 5 0 0 0 29 14 A 5 5 0 0 0 34 19 A 5 5 0 0 0 39 14 A 5 5 0 0 0 34 9 z M 21.5 11 A 3.5 3.5 0 0 0 18 14.5 A 3.5 3.5 0 0 0 21.5 18 A 3.5 3.5 0 0 0 25 14.5 A 3.5 3.5 0 0 0 21.5 11 z M 12.5 12 A 2.5 2.5 0 0 0 10 14.5 A 2.5 2.5 0 0 0 12.5 17 A 2.5 2.5 0 0 0 15 14.5 A 2.5 2.5 0 0 0 12.5 12 z M 12.548828 19 C 12.384897 18.998248 12.218406 19.005172 12.050781 19.021484 C 9.7127812 19.249484 8 21.350219 8 23.699219 L 8 31 C 8 31.552 8.448 32 9 32 L 15 32 L 15 36 C 15 36.552 15.448 37 16 37 L 26 37 L 26 41 C 26 41.552 26.448 42 27 42 L 41 42 C 41.552 42 42 41.552 42 41 L 42 29 C 42 24.408 38.109172 20.705578 33.451172 21.017578 C 31.034073 21.17978 28.958562 22.458437 27.615234 24.3125 C 26.62447 21.551336 23.821073 19.646802 20.644531 20.054688 C 19.092983 20.254078 17.748871 21.024656 16.759766 22.126953 C 16.179752 20.334557 14.526838 19.021136 12.548828 19 z"/></svg>