<?xml version="1.0" encoding="UTF-8"?>
<!DOCTYPE svg PUBLIC "-//W3C//DTD SVG 1.0//EN" "http://www.w3.org/TR/2001/REC-SVG-20010904/DTD/svg10.dtd">
<!-- Creator: CorelDRAW 2018 (64 Bit Versão de avaliação) -->
<svg xmlns="http://www.w3.org/2000/svg" xml:space="preserve" width="180px" height="180px" version="1.0" style="shape-rendering:geometricPrecision; text-rendering:geometricPrecision; image-rendering:optimizeQuality; fill-rule:evenodd; clip-rule:evenodd"
viewBox="0 0 180 180"
 xmlns:xlink="http://www.w3.org/1999/xlink">
 <defs>
  <style type="text/css">
   <![CDATA[
    .str1 {stroke:#373435;stroke-width:10;stroke-miterlimit:22.9256}
    .str2 {stroke:#282829;stroke-width:8;stroke-miterlimit:22.9256}
    .str0 {stroke:#282829;stroke-width:0.9;stroke-miterlimit:22.9256}
    .fil0 {fill:none}
    .fil2 {fill:#FEFEFE}
    .fil1 {fill:#ED3237}
   ]]>
  </style>
 </defs>
 <g id="Camada_x0020_1">
  <metadata id="CorelCorpID_0Corel-Layer"/>
  <rect class="fil0" width="180" height="180"/>
  <rect class="fil1 str0" x="20" y="20" width="140" height="140" rx="33.8" ry="36.58"/>
  <rect class="fil2" x="20" y="20" width="140" height="140" rx="33.8" ry="36.58"/>
 </g>
 <g id="Camada_x0020_1_0">
  <metadata id="CorelCorpID_1Corel-Layer"/>
  <g id="_1745330770000">
   <path class="fil0 str1" d="M123.54 54.41l0 -1.91c0,-6.88 -4.82,-12.5 -10.7,-12.5l-1.84 0m0.95 100l-63.29 0c-5.88,0 -10.69,-5.62 -10.69,-12.5l0 -75c0,-6.88 4.81,-12.5 10.69,-12.5l62.34 0m0.95 100l0.89 0c5.88,0 10.7,-5.62 10.7,-12.5l0 -15.59"/>
   <path class="fil0 str2" d="M113.44 71.68c-9.77,0.83 -30.41,5.91 -40.99,16.75 -5.45,4.42 -9.21,13.68 -13.54,25.12 18.65,-23.37 32.18,-23.38 58.23,-25.6l-0.28 -1.21 -3.18 -14.02 -0.01 -0.03m0 0l-0.23 -1.01 -2.28 -10.05 41.52 15.33 -33.11 21.72 -2.43 -10.73"/>
  </g>
 </g>
</svg>
