<?xml version="1.0" encoding="UTF-8"?>
<!DOCTYPE svg PUBLIC "-//W3C//DTD SVG 1.0//EN" "http://www.w3.org/TR/2001/REC-SVG-20010904/DTD/svg10.dtd">
<!-- Creator: CorelDRAW 2018 (64 Bit Versão de avaliação) -->
<svg xmlns="http://www.w3.org/2000/svg" xml:space="preserve" width="64px" height="64px" version="1.0" style="shape-rendering:geometricPrecision; text-rendering:geometricPrecision; image-rendering:optimizeQuality; fill-rule:evenodd; clip-rule:evenodd"
viewBox="0 0 64 64"
 xmlns:xlink="http://www.w3.org/1999/xlink">
 <defs>
  <style type="text/css">
   <![CDATA[
    .fil0 {fill:#FEFEFE}
    .fil2 {fill:#8A8D91}
    .fil1 {fill:#363435}
   ]]>
  </style>
 </defs>
 <g id="Camada_x0020_1">
  <metadata id="CorelCorpID_0Corel-Layer"/>
  <g id="_1976409997344">
   <path class="fil0" d="M12.29 8.91l19.82 19.59 19.79 -19.53 3.19 3.32 -19.59 19.82 19.54 19.8 -3.33 3.18 -19.82 -19.59 -19.79 19.54 -3.19 -3.33 19.59 -19.82 -19.54 -19.8 3.33 -3.18zm-12.29 9.12l0 27.49c0,10.86 7.28,18.48 18.03,18.48l27.49 0c10.86,0 18.48,-7.28 18.48,-18.03l0 -27.49c0,-10.86 -7.28,-18.48 -18.03,-18.48l-27.49 0c-10.86,0 -18.48,7.28 -18.48,18.03z"/>
   <polygon class="fil1" points="9.42,12.1 28.95,31.89 9.37,51.71 12.1,54.57 31.89,35.05 51.71,54.63 54.58,51.9 35.05,32.11 54.63,12.29 51.9,9.43 32.11,28.95 12.29,9.37 "/>
   <path class="fil2" d="M32.11 28.95l19.79 -19.52 2.73 2.86 -19.58 19.82 19.53 19.79 -2.87 2.73 -19.82 -19.58 -19.79 19.52 -2.73 -2.86 19.58 -19.82 -19.53 -19.79 2.87 -2.73 19.82 19.58zm-23.15 -16.86l19.54 19.8 -19.59 19.82 3.19 3.33 19.79 -19.54 19.82 19.59 3.33 -3.18 -19.54 -19.8 19.59 -19.82 -3.19 -3.32 -19.79 19.53 -19.82 -19.59 -3.33 3.18z"/>
  </g>
 </g>
</svg>
