<?xml version="1.0" standalone="no"?>
<!DOCTYPE svg PUBLIC "-//W3C//DTD SVG 20010904//EN"
 "http://www.w3.org/TR/2001/REC-SVG-20010904/DTD/svg10.dtd">
<svg version="1.0" xmlns="http://www.w3.org/2000/svg"
 width="1003.000000pt" height="1280.000000pt" viewBox="0 0 1003.000000 1280.000000"
 preserveAspectRatio="xMidYMid meet">
<metadata>
Created by potrace 1.15, written by Peter Selinger 2001-2017
</metadata>
<g transform="translate(0.000000,1280.000000) scale(0.100000,-0.100000)"
fill="#000000" stroke="none">
<path d="M7065 12784 c-418 -74 -754 -373 -869 -776 -142 -495 87 -1028 542
-1261 362 -186 768 -165 1103 55 655 432 650 1395 -11 1823 -221 144 -511 204
-765 159z"/>
<path d="M6850 10390 c-415 -4 -1410 -13 -2210 -20 -800 -6 -1639 -15 -1865
-18 l-410 -7 -46 -27 c-136 -80 -91 -291 76 -353 22 -8 303 -60 625 -115 322
-55 664 -113 760 -130 96 -17 623 -107 1170 -200 547 -93 1036 -181 1085 -196
50 -14 121 -42 158 -61 113 -60 238 -189 302 -312 12 -24 596 -1595 650 -1749
4 -11 25 -13 98 -8 50 3 175 8 277 11 102 3 606 19 1120 35 1425 45 1319 38
1367 86 22 22 25 32 21 69 -4 28 -103 255 -283 646 -153 332 -406 883 -563
1224 -157 341 -338 735 -402 875 l-117 255 -529 1 c-291 0 -869 -3 -1284 -6z"/>
<path d="M1547 9582 c-53 -53 -97 -103 -97 -109 0 -7 8 -18 18 -26 9 -7 149
-146 310 -308 l292 -294 11 -115 c19 -212 64 -394 136 -550 34 -72 53 -93 477
-518 l441 -442 382 382 383 383 -432 434 -433 433 -90 44 c-102 48 -200 85
-294 109 -78 20 -257 45 -326 45 l-50 0 -315 315 -315 315 -98 -98z"/>
<path d="M7350 7006 c0 -3 -397 -1504 -882 -3338 -852 -3222 -882 -3336 -882
-3425 -1 -86 1 -94 29 -134 110 -154 394 -137 497 31 15 25 207 459 427 965
219 506 683 1575 1030 2374 348 800 643 1470 657 1488 54 71 109 80 139 22 9
-16 25 -92 36 -167 21 -147 208 -1411 289 -1962 70 -471 260 -1763 326 -2210
30 -206 62 -395 71 -420 22 -63 89 -125 154 -145 148 -43 320 11 376 119 13
25 22 130 44 506 16 261 55 934 89 1495 33 561 105 1783 160 2715 54 932 102
1729 106 1772 11 134 -34 233 -129 288 l-52 30 -1242 0 c-684 0 -1243 -2
-1243 -4z"/>
<path d="M106 6850 c-66 -20 -111 -90 -102 -158 14 -101 66 -132 224 -132
l110 0 6 -27 c3 -16 17 -104 31 -198 13 -93 65 -440 115 -770 50 -330 122
-809 161 -1065 38 -256 87 -582 109 -725 22 -143 71 -469 109 -725 39 -256
107 -706 151 -1000 44 -294 117 -773 161 -1065 44 -291 85 -567 91 -612 l12
-83 1621 0 1622 0 42 328 c24 180 208 1589 410 3132 l366 2805 120 5 c137 6
163 16 197 83 34 68 14 140 -56 191 l-27 21 -2722 2 c-1509 1 -2735 -3 -2751
-7z m1374 -299 c0 -5 16 -181 35 -391 19 -210 35 -395 35 -411 l0 -29 -389 0
-389 0 -11 63 c-5 34 -33 215 -61 402 -27 187 -52 348 -54 358 -4 16 21 17
415 17 252 0 419 -4 419 -9z m1250 -411 l0 -420 -437 2 -438 3 -31 350 c-18
193 -35 380 -39 418 l-6 67 475 0 476 0 0 -420z m1139 378 c0 -24 -12 -212
-27 -418 l-27 -375 -393 -3 -392 -2 0 420 0 420 420 0 420 0 -1 -42z m1171 25
c-1 -10 -24 -198 -53 -418 l-53 -400 -407 -3 -407 -2 0 27 c0 16 12 205 27
421 l27 392 433 0 c406 0 433 -1 433 -17z m-3456 -1155 c3 -18 15 -139 26
-268 11 -129 22 -254 26 -277 l5 -43 -365 0 -364 0 -6 28 c-9 42 -86 559 -86
577 0 13 44 15 380 15 l379 0 5 -32z m1146 -278 l0 -310 -394 0 -394 0 -6 48
c-3 26 -15 151 -26 277 -11 127 -22 245 -24 263 l-5 32 425 0 424 0 0 -310z
m1060 283 c0 -16 -9 -147 -20 -293 -11 -146 -20 -273 -20 -282 0 -17 -24 -18
-360 -18 l-360 0 0 310 0 310 380 0 380 0 0 -27z m1100 5 c-1 -13 -18 -151
-38 -308 l-38 -285 -382 -3 c-302 -2 -382 0 -382 10 0 7 9 132 20 278 11 146
20 280 20 298 l0 32 400 0 400 0 0 -22z m-3194 -1228 l30 -330 -338 0 c-315 0
-338 1 -338 18 -1 9 -22 158 -48 330 l-48 312 356 0 356 0 30 -330z m1034 0
l0 -330 -350 0 -350 0 -4 23 c-5 23 -56 590 -56 620 0 16 25 17 380 17 l380 0
0 -330z m995 288 c-3 -24 -12 -144 -20 -268 -8 -124 -17 -253 -21 -287 l-6
-63 -324 0 -324 0 0 330 0 330 350 0 350 0 -5 -42z m1045 26 c0 -8 -18 -152
-40 -319 -22 -167 -40 -309 -40 -314 0 -8 -111 -11 -356 -11 l-355 0 5 53 c3
28 13 158 21 287 9 129 18 254 21 278 l5 42 370 0 c328 0 369 -2 369 -16z
m-3019 -946 c0 -2 15 -157 33 -345 l32 -343 -308 0 c-192 0 -308 4 -308 10 0
5 -22 159 -50 341 -27 182 -50 333 -50 335 0 4 649 6 651 2z m979 -343 l0
-345 -305 0 c-168 0 -305 1 -306 3 -5 12 -63 679 -60 683 2 2 154 4 338 4
l333 0 0 -345z m926 283 c-5 -50 -46 -608 -46 -624 0 -2 -130 -4 -290 -4
l-290 0 0 338 c0 186 3 342 7 345 3 4 145 7 315 7 l310 0 -6 -62z m987 55 c2
-5 -15 -154 -39 -333 -24 -179 -43 -331 -44 -337 0 -10 -72 -13 -326 -13
l-326 0 6 63 c5 49 46 607 46 623 0 7 679 4 683 -3z m-2799 -1005 c6 -29 56
-593 56 -630 l0 -28 -275 0 c-151 0 -275 1 -275 3 0 2 -22 152 -50 333 -27
181 -50 332 -50 337 0 4 133 7 295 7 l295 0 4 -22z m886 -318 l0 -340 -262 2
-263 3 -27 290 c-14 160 -27 311 -27 338 l-1 47 290 0 290 0 0 -340z m855 283
c-3 -32 -12 -157 -20 -278 -8 -121 -18 -248 -21 -283 l-6 -62 -251 2 -252 3
-3 338 -2 337 280 0 281 0 -6 -57z m930 25 c-3 -18 -21 -154 -40 -303 -19
-148 -37 -287 -41 -307 l-6 -38 -294 0 -295 0 6 58 c3 31 12 156 20 277 8 121
18 248 21 283 l6 62 315 0 314 0 -6 -32z m-2580 -990 c4 -36 85 -915 85 -932
0 -4 -107 -6 -238 -6 l-239 0 -11 78 c-6 42 -38 256 -72 475 -33 220 -60 405
-60 413 0 12 44 14 264 14 l265 0 6 -42z m795 -448 l0 -490 -205 0 c-169 0
-205 2 -205 14 0 21 -79 895 -84 934 l-5 32 250 0 249 0 0 -490z m786 428 c-6
-56 -66 -891 -66 -910 0 -5 -94 -8 -210 -8 l-210 0 0 490 0 490 246 0 246 0
-6 -62z m873 50 c0 -7 -28 -227 -63 -488 l-62 -475 -257 -3 c-141 -1 -257 -1
-257 0 0 2 16 221 35 488 19 267 35 486 35 488 0 1 128 2 285 2 222 0 285 -3
284 -12z"/>
</g>
</svg>
