<?xml version="1.0" encoding="UTF-8"?>
<!DOCTYPE svg PUBLIC "-//W3C//DTD SVG 1.1//EN" "http://www.w3.org/Graphics/SVG/1.1/DTD/svg11.dtd">
<!-- Creator: CorelDRAW 2018 (64 Bit Versão de avaliação) -->
<svg xmlns="http://www.w3.org/2000/svg" xml:space="preserve" width="203.369mm" height="187.452mm" version="1.1" style="shape-rendering:geometricPrecision; text-rendering:geometricPrecision; image-rendering:optimizeQuality; fill-rule:evenodd; clip-rule:evenodd"
viewBox="0 0 13253.08 12215.78"
 xmlns:xlink="http://www.w3.org/1999/xlink">
 <defs>
  <style type="text/css">
   <![CDATA[
    .fil3 {fill:#FEFEFE}
    .fil0 {fill:#E33439}
    .fil2 {fill:#DBD3BC}
    .fil4 {fill:#B2D197}
    .fil1 {fill:#292929}
   ]]>
  </style>
 </defs>
 <g id="Camada_x0020_1">
  <metadata id="CorelCorpID_0Corel-Layer"/>
  <g id="_2334300428432">
   <path class="fil0" d="M6459.55 1832.75c821.44,-81.04 1494.21,568.61 1570.56,1295.14 88.54,842.38 -560.81,1516.78 -1299.54,1592.03 -838.98,85.47 -1515.9,-569.66 -1586.34,-1307.76 -80.42,-842.68 568.03,-1505.69 1315.32,-1579.41zm125.57 7321.73c3.73,-3.47 9.21,-14.25 10.71,-10.89 1.49,3.34 8.45,-8.6 10.47,-11.04l686.28 -1136.76c244.37,-410.23 1975.59,-3263.68 2095.52,-3557.44 389.92,-955.1 321.35,-2142.57 -308.44,-2978.22 -134.06,-177.89 -272.35,-350.35 -442.36,-489.53 -605.35,-495.59 -1177.06,-783.78 -2052.22,-782.9 -2286.54,2.29 -3633.2,2352.05 -2804.99,4231.96 103.17,234.19 208,399.74 329.32,602.29l2475.69 4132.54z"/>
   <path class="fil1" d="M2530.74 7776.71l705.2 -2.5 2309.54 9.79 1039.64 1727.51c18.73,-16.06 11.18,-7.09 33.33,-34.79 1.66,-2.08 23.84,-34.88 26.09,-38.48 12.82,-20.51 31.5,-54.94 45.42,-78.49l441.77 -738.31c59.14,-93.63 116.09,-208.99 176.21,-289.94 52.73,-102.38 112.11,-192.56 172.02,-293.59 50.27,-84.78 102.03,-219.22 181.97,-262.04l1319.41 -2.22 797.29 0.25 1884.89 3 573.08 2110.07 189.5 680.26 289.34 1066.58 -1386.95 4.39 -10786.74 -6.81 1032.05 -3855.05 956.93 0.37zm1578.69 -2754.78c-121.32,-202.55 -226.15,-368.1 -329.32,-602.29 -828.21,-1879.9 518.45,-4229.66 2804.99,-4231.96 875.15,-0.88 1446.87,287.31 2052.22,782.9 170.01,139.18 308.29,311.64 442.36,489.53 629.79,835.65 698.36,2023.12 308.44,2978.22 -119.93,293.76 -1851.15,3147.21 -2095.52,3557.44l-686.28 1136.76c-2.03,2.44 -8.98,14.38 -10.47,11.04 -1.51,-3.36 -6.99,7.42 -10.71,10.89l-2475.69 -4132.54zm-4109.43 6437.28l0 295.03c70.56,130.83 66.29,240.03 190.15,333.12 121.48,91.31 287.37,71.62 417.37,128.41l11922.55 0c140.66,-49.74 296.73,-3.79 480.78,-97.01 189.27,-95.88 139.25,-176.22 242.22,-347.39l0 -333.25c-55.7,-111.4 -89.24,-335.61 -132.14,-477.29 -223.97,-739.75 -495.74,-1493.29 -734.63,-2225.56 -95.84,-293.76 -177.36,-612.43 -281.22,-900.16 -128.15,-355.01 -234.64,-503.05 -663.63,-534.19 -384.68,-27.92 -784.07,-6.45 -1170.32,-6.82 -787.41,-0.76 -1559.99,17.63 -2344.57,16.43 39.8,-87.83 94.66,-162.93 147.72,-251.8l423.71 -715.75c92.09,-161.12 185.69,-311.04 287.04,-478.36 550.87,-909.4 1073.6,-1598.19 1035.45,-2779.72 -15.16,-469.7 -137.3,-850.67 -305.94,-1231.52 -167.3,-377.82 -413.06,-657.59 -631.81,-900.26 -99.63,-110.53 -287.43,-250.35 -417.74,-348.71 -760.17,-573.83 -1478.68,-531.45 -1667.15,-604.43l-422.47 0c-98.19,36.98 -497,72.82 -663.2,120.46 -823.5,236.06 -1318.18,662.31 -1785.21,1280.41 -118.73,157.14 -184.59,304.48 -278.08,487.89 -178.55,350.29 -281.63,794.88 -293.7,1237.45 -28.94,1061.38 352.67,1588.46 770.68,2293.33 194.24,327.55 385.03,637.89 573.3,959.14 75.31,128.51 550.63,894.04 551.82,959.57 -436.78,0 -3151.31,-0.09 -3486.69,37.95 -387.73,43.99 -477.06,223.3 -597.4,561.68 -98.85,277.91 -186.73,601.65 -284.78,894.65l-882.1 2626.7z"/>
   <path class="fil2" d="M11328.5 11638.2c-57.25,-63.43 -209.86,-110.99 -320.16,-242.81 -157.75,-188.52 -20.18,-162.7 -286.84,-271.74 -436.31,-178.44 -429.73,-131.44 -598.45,-554.76l-8366.02 0.63 773.7 -2792.8 -956.93 -0.37 -1032.05 3855.05 10786.74 6.81z"/>
   <path class="fil2" d="M9877.58 9891.71l-98.94 -2117.8 -797.29 -0.25 -69.03 1572.78c-69.66,-2.66 -472.08,-27.61 -576.53,-60.97 -110.53,-35.3 -125.78,-64.38 -192.36,-139.6 -287.64,-325 -316.52,-213.58 -634.18,-359.41 -228.43,-104.86 -163.41,-281.83 -181.34,-399.05 -7.26,-47.46 -0.76,-31.92 -19.96,-55.9 -60.12,80.95 -117.07,196.3 -176.21,289.94l-441.77 738.31c-13.92,23.55 -32.6,57.97 -45.42,78.49 -2.25,3.6 -24.43,36.4 -26.09,38.48 -22.14,27.7 -14.6,18.74 -33.33,34.79l-1039.64 -1727.51 -2309.54 -9.79 -471.51 2180.42 7113.14 -62.92z"/>
   <path class="fil3" d="M10123.06 10568.88l2303.05 -1.65 -189.5 -680.26c-178.38,-42.6 -937.82,-5.73 -1178.55,-3.49 -381.78,3.56 -803.44,23.68 -1180.48,8.23l-7113.14 62.92 471.51 -2180.42 -705.2 2.5 -773.7 2792.8 8366.02 -0.63z"/>
   <path class="fil3" d="M6326.04 2047.06c-381.49,82.68 -614.12,265.86 -765.33,490.15 -651.3,966.06 147.51,2210.91 1290.1,1973.7 613.18,-127.3 1121.16,-711.59 974,-1484.43 -116.55,-612.09 -730.8,-1145.87 -1498.78,-979.42z"/>
   <path class="fil4" d="M9877.58 9891.71c377.04,15.45 798.69,-4.67 1180.48,-8.23 240.73,-2.24 1000.17,-39.11 1178.55,3.49l-573.08 -2110.07 -1884.89 -3 98.94 2117.8z"/>
   <path class="fil4" d="M11328.5 11638.2l1386.95 -4.39 -289.34 -1066.58 -2303.05 1.65c168.72,423.32 162.14,376.33 598.45,554.76 266.65,109.04 129.08,83.22 286.84,271.74 110.3,131.82 262.91,179.37 320.16,242.81z"/>
   <path class="fil4" d="M7307.95 8331.5c19.2,23.98 12.7,8.44 19.96,55.9 17.93,117.22 -47.1,294.19 181.34,399.05 317.66,145.83 346.54,34.4 634.18,359.41 66.58,75.22 81.82,104.3 192.36,139.6 104.45,33.36 506.87,58.31 576.53,60.97l69.03 -1572.78 -1319.41 2.22c-79.93,42.82 -131.7,177.26 -181.97,262.04 -59.9,101.03 -119.29,191.2 -172.02,293.59z"/>
   <path class="fil1" d="M6326.04 2047.06c767.98,-166.44 1382.22,367.33 1498.78,979.42 147.15,772.84 -360.82,1357.13 -974,1484.43 -1142.59,237.2 -1941.4,-1007.64 -1290.1,-1973.7 151.21,-224.29 383.84,-407.47 765.33,-490.15zm133.51 -214.31c-747.29,73.72 -1395.74,736.74 -1315.32,1579.41 70.45,738.09 747.36,1393.23 1586.34,1307.76 738.73,-75.26 1388.08,-749.65 1299.54,-1592.03 -76.36,-726.53 -749.12,-1376.18 -1570.56,-1295.14z"/>
   <path class="fil3" d="M12530.07 12215.78l723 0 0 -444.4c-102.97,171.17 -52.96,251.51 -242.22,347.39 -184.05,93.23 -340.12,47.27 -480.78,97.01z"/>
   <path class="fil3" d="M-0 12215.78l607.52 0c-130,-56.79 -295.89,-37.1 -417.37,-128.41 -123.86,-93.1 -119.59,-202.29 -190.15,-333.12l0 461.53z"/>
  </g>
 </g>
</svg>
