<?xml version="1.0" encoding="UTF-8"?>
<!DOCTYPE svg PUBLIC "-//W3C//DTD SVG 1.1//EN" "http://www.w3.org/Graphics/SVG/1.1/DTD/svg11.dtd">
<!-- Creator: CorelDRAW 2018 (64 Bit Versão de avaliação) -->
<svg xmlns="http://www.w3.org/2000/svg" xml:space="preserve" width="1333px" height="1112px" version="1.1" style="shape-rendering:geometricPrecision; text-rendering:geometricPrecision; image-rendering:optimizeQuality; fill-rule:evenodd; clip-rule:evenodd"
viewBox="0 0 1380.24 1151.93"
 xmlns:xlink="http://www.w3.org/1999/xlink">
 <defs>
  <style type="text/css">
   <![CDATA[
    .str2 {stroke:white;stroke-width:51.79;stroke-miterlimit:22.9256}
    .str1 {stroke:white;stroke-width:62.15;stroke-miterlimit:22.9256}
    .str0 {stroke:white;stroke-width:62.15;stroke-linejoin:round;stroke-miterlimit:22.9256}
    .str3 {stroke:white;stroke-width:62.15;stroke-miterlimit:22.9256}
    .fil0 {fill:none}
    .fil1 {fill:white}
   ]]>
  </style>
 </defs>
 <g id="Camada_x0020_1">
  <metadata id="CorelCorpID_0Corel-Layer"/>
  <rect class="fil0" width="1380.24" height="1151.93"/>
  <path class="fil0 str0" d="M572.19 1043.19c-0.34,-64.53 -0.49,-70.63 1.07,-123.65 1.29,-44.05 218.37,-37.2 219.36,-2.24 1.74,61.39 1.65,62.1 2.86,125.89"/>
  <path class="fil0 str1" d="M955.51 285.38c37.71,-24.95 79.83,-52.83 126.92,-83.96 53.24,-35.21 113.95,-75.38 183.61,-121.58 0,168.75 0,334.78 0,497.9 0,160.58 0,318.73 0,474.17 -66.74,-60.68 -125.45,-114.07 -177.4,-161.31 -46.35,-42.16 -88.09,-80.06 -125.63,-114.33 -1.25,-79.99 -2.45,-160.66 -3.71,-242.08 -1.27,-82.16 -2.5,-165.15 -3.79,-248.81zm-143.79 91.69c18.75,-11.5 38.86,-23.87 60.37,-37.09 23.19,-14.25 48.24,-29.7 75.25,-46.41 1.24,80.42 2.49,160.23 3.74,239.3 1.23,78.33 2.42,156.06 3.62,233.12 -26.56,-23.66 -51.37,-45.67 -74.44,-66.25 -21.54,-19.21 -41.67,-37.21 -60.57,-54.17 -1.34,-44.38 -2.67,-88.93 -4,-133.53 -1.34,-44.82 -2.64,-89.87 -3.97,-134.97z"/>
  <path class="fil0 str1" d="M427.76 285.38c-37.71,-24.95 -79.82,-52.83 -126.91,-83.96 -53.24,-35.21 -113.95,-75.38 -183.61,-121.58 0,168.75 0,334.78 0,497.9 0,160.58 0,318.73 0,474.17 66.73,-60.68 125.45,-114.07 177.39,-161.31 46.36,-42.16 88.1,-80.06 125.64,-114.33 1.24,-79.99 2.45,-160.66 3.71,-242.08 1.27,-82.16 2.5,-165.15 3.78,-248.81zm143.8 91.69c-18.75,-11.5 -38.87,-23.87 -60.38,-37.09 -23.19,-14.25 -48.23,-29.7 -75.24,-46.41 -1.25,80.42 -2.5,160.23 -3.74,239.3 -1.24,78.33 -2.42,156.06 -3.62,233.12 26.56,-23.66 51.36,-45.67 74.43,-66.25 21.55,-19.21 41.68,-37.21 60.58,-54.17 1.34,-44.38 2.67,-88.93 4,-133.53 1.33,-44.82 2.64,-89.87 3.97,-134.97z"/>
  <circle class="fil1 str2" cx="685.85" cy="740.05" r="62.15"/>
  <g id="_1493153555200">
   <line class="fil0 str3" x1="103.46" y1="1065.66" x2="1276.79" y2= "1061.33" />
  </g>
 </g>
</svg>
